<?xml version="1.0" encoding="utf-8"?>

<!DOCTYPE svg PUBLIC "-//W3C//DTD SVG 1.1//EN" "http://www.w3.org/Graphics/SVG/1.1/DTD/svg11.dtd">
<svg version="1.1" id="Layer_1" xmlns="http://www.w3.org/2000/svg" xmlns:xlink="http://www.w3.org/1999/xlink" x="0px" y="0px"
	 viewBox="0 0 1821.046 1635.524" enable-background="new 0 0 1821.046 1635.524" xml:space="preserve">
<symbol  id="Heart" viewBox="-22.049 -20 44.098 40">
	<path fill="#FF0000" enable-background="new    " d="M21.672,11.477c-1.237,4.818-5.129,7.87-10.483,8.448
		C10.724,19.976,10.272,20,9.83,20c-4.654,0-7.965-2.718-9.858-6.432c-1.978,3.877-5.354,6.391-10.276,6.391
		c-0.326,0-0.659-0.011-0.998-0.033c-4.896-0.323-9.101-3.25-10.426-8.957C-24.112,0.703-12.83-9.791-0.028-20
		C13.587-9.861,24.209,1.6,21.672,11.477z"/>
</symbol>
<g id="Red_Heart">
	<g id="Female_Symbol">
		<g>
			
				<use xlink:href="#Heart"  width="44.098" height="40" x="-22.049" y="-20" transform="matrix(-0.7233 -0.7192 -0.7192 0.7233 575.8583 1107.0676)" overflow="visible"/>
			
				<use xlink:href="#Heart"  width="44.098" height="40" x="-22.049" y="-20" transform="matrix(-0.9983 -0.2095 -0.2095 0.9983 1777.0455 441.0337)" overflow="visible"/>
			
				<use xlink:href="#Heart"  width="44.098" height="40" x="-22.049" y="-20" transform="matrix(-0.7454 -0.6963 -0.6963 0.7454 413.8496 1156.1233)" overflow="visible"/>
			
				<use xlink:href="#Heart"  width="44.098" height="40" x="-22.049" y="-20" transform="matrix(-0.0792 -1.017 -1.017 0.0792 347.3541 767.0857)" overflow="visible"/>
			
				<use xlink:href="#Heart"  width="44.098" height="40" x="-22.049" y="-20" transform="matrix(0.8567 0.5538 0.5538 -0.8567 1350.15 1223.1676)" overflow="visible"/>
			
				<use xlink:href="#Heart"  width="44.098" height="40" x="-22.049" y="-20" transform="matrix(-0.7195 0.7231 0.7231 0.7195 1515.649 783.6973)" overflow="visible"/>
			
				<use xlink:href="#Heart"  width="44.098" height="40" x="-22.049" y="-20" transform="matrix(0.9875 -0.2556 -0.2556 -0.9875 1439.1097 116.1073)" overflow="visible"/>
			
				<use xlink:href="#Heart"  width="44.098" height="40" x="-22.049" y="-20" transform="matrix(0.9674 -0.3236 -0.3236 -0.9674 1253.5699 259.5622)" overflow="visible"/>
			
				<use xlink:href="#Heart"  width="44.098" height="40" x="-22.049" y="-20" transform="matrix(0.6727 -0.7668 -0.7668 -0.6727 1462.568 960.6473)" overflow="visible"/>
			
				<use xlink:href="#Heart"  width="44.098" height="40" x="-22.049" y="-20" transform="matrix(-0.0231 -1.0198 -1.0198 0.0231 1157.2002 72.6929)" overflow="visible"/>
			
				<use xlink:href="#Heart"  width="44.098" height="40" x="-22.049" y="-20" transform="matrix(-0.7323 0.7101 0.7101 0.7323 313.0283 1058.2419)" overflow="visible"/>
			
				<use xlink:href="#Heart"  width="44.098" height="40" x="-22.049" y="-20" transform="matrix(0.5593 -0.8531 -0.8531 -0.5593 675.0727 1411.3892)" overflow="visible"/>
			
				<use xlink:href="#Heart"  width="44.098" height="40" x="-22.049" y="-20" transform="matrix(-0.8264 0.5981 0.5981 0.8264 446.0419 317.929)" overflow="visible"/>
			
				<use xlink:href="#Heart"  width="44.098" height="40" x="-22.049" y="-20" transform="matrix(0.2082 0.9986 0.9986 -0.2082 1188.5017 1366.572)" overflow="visible"/>
			
				<use xlink:href="#Heart"  width="44.098" height="40" x="-22.049" y="-20" transform="matrix(1.02 -0.0072 -0.0072 -1.02 1313.9846 1259.4976)" overflow="visible"/>
			
				<use xlink:href="#Heart"  width="44.098" height="40" x="-22.049" y="-20" transform="matrix(0.0309 -1.0196 -1.0196 -0.0309 1438.3514 323.3036)" overflow="visible"/>
			
				<use xlink:href="#Heart"  width="44.098" height="40" x="-22.049" y="-20" transform="matrix(-0.2786 -0.9813 -0.9813 0.2786 529.7284 42.3462)" overflow="visible"/>
			
				<use xlink:href="#Heart"  width="44.098" height="40" x="-22.049" y="-20" transform="matrix(0.9945 0.2268 0.2268 -0.9945 1541.7971 610.9462)" overflow="visible"/>
			
				<use xlink:href="#Heart"  width="44.098" height="40" x="-22.049" y="-20" transform="matrix(-0.4322 -0.924 -0.924 0.4322 779.9123 1418.2489)" overflow="visible"/>
			
				<use xlink:href="#Heart"  width="44.098" height="40" x="-22.049" y="-20" transform="matrix(0.0305 -1.0196 -1.0196 -0.0305 1511.4719 727.5138)" overflow="visible"/>
			
				<use xlink:href="#Heart"  width="44.098" height="40" x="-22.049" y="-20" transform="matrix(-0.989 -0.2499 -0.2499 0.989 471.3292 870.8921)" overflow="visible"/>
			
				<use xlink:href="#Heart"  width="44.098" height="40" x="-22.049" y="-20" transform="matrix(0.1121 -1.0139 -1.0139 -0.1121 364.949 952.5909)" overflow="visible"/>
			
				<use xlink:href="#Heart"  width="44.098" height="40" x="-22.049" y="-20" transform="matrix(-0.9656 -0.3289 -0.3289 0.9656 865.5148 1560.2258)" overflow="visible"/>
			
				<use xlink:href="#Heart"  width="44.098" height="40" x="-22.049" y="-20" transform="matrix(-0.019 1.0199 1.0199 0.019 763.3032 598.9814)" overflow="visible"/>
			
				<use xlink:href="#Heart"  width="44.098" height="40" x="-22.049" y="-20" transform="matrix(-0.9275 -0.4245 -0.4245 0.9275 1243.116 357.92)" overflow="visible"/>
			
				<use xlink:href="#Heart"  width="44.098" height="40" x="-22.049" y="-20" transform="matrix(0.0304 -1.0196 -1.0196 -0.0304 266.5626 903.6384)" overflow="visible"/>
			
				<use xlink:href="#Heart"  width="44.098" height="40" x="-22.049" y="-20" transform="matrix(0.8974 0.485 0.485 -0.8974 1276.4624 481.8789)" overflow="visible"/>
			
				<use xlink:href="#Heart"  width="44.098" height="40" x="-22.049" y="-20" transform="matrix(0.5003 -0.8889 -0.8889 -0.5003 1200.6583 251.7137)" overflow="visible"/>
			
				<use xlink:href="#Heart"  width="44.098" height="40" x="-22.049" y="-20" transform="matrix(-0.1378 1.0107 1.0107 0.1378 602.3716 764.2905)" overflow="visible"/>
			
				<use xlink:href="#Heart"  width="44.098" height="40" x="-22.049" y="-20" transform="matrix(-0.1486 -1.0092 -1.0092 0.1486 578.1025 379.7527)" overflow="visible"/>
			
				<use xlink:href="#Heart"  width="44.098" height="40" x="-22.049" y="-20" transform="matrix(-0.1679 1.0062 1.0062 0.1679 1524.5818 271.6278)" overflow="visible"/>
			
				<use xlink:href="#Heart"  width="44.098" height="40" x="-22.049" y="-20" transform="matrix(0.8883 0.5015 0.5015 -0.8883 1429.3651 1074.4701)" overflow="visible"/>
			
				<use xlink:href="#Heart"  width="44.098" height="40" x="-22.049" y="-20" transform="matrix(0.9963 0.219 0.219 -0.9963 476.6978 434.9432)" overflow="visible"/>
			
				<use xlink:href="#Heart"  width="44.098" height="40" x="-22.049" y="-20" transform="matrix(-1.0151 0.1006 0.1006 1.0151 886.2605 515.4204)" overflow="visible"/>
			
				<use xlink:href="#Heart"  width="44.098" height="40" x="-22.049" y="-20" transform="matrix(0.8011 -0.6315 -0.6315 -0.8011 687.3325 343.9275)" overflow="visible"/>
			
				<use xlink:href="#Heart"  width="44.098" height="40" x="-22.049" y="-20" transform="matrix(-0.3429 -0.9607 -0.9607 0.3429 1198.7198 791.8057)" overflow="visible"/>
			
				<use xlink:href="#Heart"  width="44.098" height="40" x="-22.049" y="-20" transform="matrix(-0.8643 0.5417 0.5417 0.8643 580.097 479.8864)" overflow="visible"/>
			
				<use xlink:href="#Heart"  width="44.098" height="40" x="-22.049" y="-20" transform="matrix(-0.6204 0.8097 0.8097 0.6204 859.0633 676.4725)" overflow="visible"/>
			
				<use xlink:href="#Heart"  width="44.098" height="40" x="-22.049" y="-20" transform="matrix(0.7308 -0.7116 -0.7116 -0.7308 1220.3461 1244.6134)" overflow="visible"/>
			
				<use xlink:href="#Heart"  width="44.098" height="40" x="-22.049" y="-20" transform="matrix(1.0086 -0.1524 -0.1524 -1.0086 383.447 1061.848)" overflow="visible"/>
			
				<use xlink:href="#Heart"  width="44.098" height="40" x="-22.049" y="-20" transform="matrix(-0.9365 -0.4043 -0.4043 0.9365 693.2797 1212.3704)" overflow="visible"/>
			
				<use xlink:href="#Heart"  width="44.098" height="40" x="-22.049" y="-20" transform="matrix(-1.0017 -0.1926 -0.1926 1.0017 339.075 67.7259)" overflow="visible"/>
			
				<use xlink:href="#Heart"  width="44.098" height="40" x="-22.049" y="-20" transform="matrix(0.2345 0.9927 0.9927 -0.2345 1497.1544 211.6643)" overflow="visible"/>
			
				<use xlink:href="#Heart"  width="44.098" height="40" x="-22.049" y="-20" transform="matrix(-0.664 0.7743 0.7743 0.664 618.2596 1358.6323)" overflow="visible"/>
			
				<use xlink:href="#Heart"  width="44.098" height="40" x="-22.049" y="-20" transform="matrix(0.7627 -0.6774 -0.6774 -0.7627 546.6078 432.1163)" overflow="visible"/>
			
				<use xlink:href="#Heart"  width="44.098" height="40" x="-22.049" y="-20" transform="matrix(0.0229 1.0198 1.0198 -0.0229 799.5562 228.2769)" overflow="visible"/>
			
				<use xlink:href="#Heart"  width="44.098" height="40" x="-22.049" y="-20" transform="matrix(0.8778 -0.5196 -0.5196 -0.8778 1491.1049 910.7113)" overflow="visible"/>
			
				<use xlink:href="#Heart"  width="44.098" height="40" x="-22.049" y="-20" transform="matrix(-0.7125 0.73 0.73 0.7125 1601.9425 341.8688)" overflow="visible"/>
			
				<use xlink:href="#Heart"  width="44.098" height="40" x="-22.049" y="-20" transform="matrix(0.8526 0.5599 0.5599 -0.8526 52.5844 365.8604)" overflow="visible"/>
			
				<use xlink:href="#Heart"  width="44.098" height="40" x="-22.049" y="-20" transform="matrix(-0.7156 0.7269 0.7269 0.7156 1087.0397 1385.7943)" overflow="visible"/>
			
				<use xlink:href="#Heart"  width="44.098" height="40" x="-22.049" y="-20" transform="matrix(-0.9378 -0.4013 -0.4013 0.9378 1442.7184 172.0455)" overflow="visible"/>
			
				<use xlink:href="#Heart"  width="44.098" height="40" x="-22.049" y="-20" transform="matrix(-0.9966 -0.2173 -0.2173 0.9966 211.7916 504.1659)" overflow="visible"/>
			
				<use xlink:href="#Heart"  width="44.098" height="40" x="-22.049" y="-20" transform="matrix(0.526 -0.874 -0.874 -0.526 844.4931 1434.1538)" overflow="visible"/>
			
				<use xlink:href="#Heart"  width="44.098" height="40" x="-22.049" y="-20" transform="matrix(0.8269 -0.5973 -0.5973 -0.8269 758.0715 1284.8093)" overflow="visible"/>
			
				<use xlink:href="#Heart"  width="44.098" height="40" x="-22.049" y="-20" transform="matrix(-0.8367 0.5834 0.5834 0.8367 457.1145 34.513)" overflow="visible"/>
			
				<use xlink:href="#Heart"  width="44.098" height="40" x="-22.049" y="-20" transform="matrix(0.4524 -0.9143 -0.9143 -0.4524 1058.3981 1494.0166)" overflow="visible"/>
			
				<use xlink:href="#Heart"  width="44.098" height="40" x="-22.049" y="-20" transform="matrix(0.9982 0.2103 0.2103 -0.9982 1720.2125 471.7772)" overflow="visible"/>
			
				<use xlink:href="#Heart"  width="44.098" height="40" x="-22.049" y="-20" transform="matrix(0.9994 -0.2044 -0.2044 -0.9994 1512.0946 490.7114)" overflow="visible"/>
			
				<use xlink:href="#Heart"  width="44.098" height="40" x="-22.049" y="-20" transform="matrix(0.7686 0.6706 0.6706 -0.7686 1038.6727 576.8814)" overflow="visible"/>
			
				<use xlink:href="#Heart"  width="44.098" height="40" x="-22.049" y="-20" transform="matrix(-0.2705 -0.9835 -0.9835 0.2705 1377.1362 1075.1208)" overflow="visible"/>
			
				<use xlink:href="#Heart"  width="44.098" height="40" x="-22.049" y="-20" transform="matrix(0.5753 0.8423 0.8423 -0.5753 499.6743 378.9249)" overflow="visible"/>
			
				<use xlink:href="#Heart"  width="44.098" height="40" x="-22.049" y="-20" transform="matrix(1.0108 0.1368 0.1368 -1.0108 796.929 1177.476)" overflow="visible"/>
			
				<use xlink:href="#Heart"  width="44.098" height="40" x="-22.049" y="-20" transform="matrix(-0.7218 0.7208 0.7208 0.7218 813.3769 1469.4855)" overflow="visible"/>
			
				<use xlink:href="#Heart"  width="44.098" height="40" x="-22.049" y="-20" transform="matrix(0.9229 0.4345 0.4345 -0.9229 1106.1394 159.927)" overflow="visible"/>
			
				<use xlink:href="#Heart"  width="44.098" height="40" x="-22.049" y="-20" transform="matrix(0.8827 -0.5112 -0.5112 -0.8827 1077.6211 1178.3003)" overflow="visible"/>
			
				<use xlink:href="#Heart"  width="44.098" height="40" x="-22.049" y="-20" transform="matrix(-1.0069 0.1631 0.1631 1.0069 1551.3555 835.8111)" overflow="visible"/>
			
				<use xlink:href="#Heart"  width="44.098" height="40" x="-22.049" y="-20" transform="matrix(-0.5164 -0.8797 -0.8797 0.5164 1270.6808 1289.6117)" overflow="visible"/>
			
				<use xlink:href="#Heart"  width="44.098" height="40" x="-22.049" y="-20" transform="matrix(0.9715 0.3111 0.3111 -0.9715 1266.6167 41.7191)" overflow="visible"/>
			
				<use xlink:href="#Heart"  width="44.098" height="40" x="-22.049" y="-20" transform="matrix(0.73 0.7125 0.7125 -0.73 1601.7936 852.886)" overflow="visible"/>
			
				<use xlink:href="#Heart"  width="44.098" height="40" x="-22.049" y="-20" transform="matrix(-1.0084 0.1539 0.1539 1.0084 690.5972 961.6512)" overflow="visible"/>
			
				<use xlink:href="#Heart"  width="44.098" height="40" x="-22.049" y="-20" transform="matrix(0.1822 -1.0037 -1.0037 -0.1822 432.8035 549.6213)" overflow="visible"/>
			
				<use xlink:href="#Heart"  width="44.098" height="40" x="-22.049" y="-20" transform="matrix(-0.901 -0.4782 -0.4782 0.901 635.92 123.5453)" overflow="visible"/>
			
				<use xlink:href="#Heart"  width="44.098" height="40" x="-22.049" y="-20" transform="matrix(1.0042 -0.179 -0.179 -1.0042 1471.1018 1106.9724)" overflow="visible"/>
			
				<use xlink:href="#Heart"  width="44.098" height="40" x="-22.049" y="-20" transform="matrix(0.6293 -0.8028 -0.8028 -0.6293 47.5221 433.9481)" overflow="visible"/>
			
				<use xlink:href="#Heart"  width="44.098" height="40" x="-22.049" y="-20" transform="matrix(-0.6328 -0.8001 -0.8001 0.6328 403.1136 653.3441)" overflow="visible"/>
			
				<use xlink:href="#Heart"  width="44.098" height="40" x="-22.049" y="-20" transform="matrix(0.2456 0.9901 0.9901 -0.2456 1336.5654 749.1797)" overflow="visible"/>
			
				<use xlink:href="#Heart"  width="44.098" height="40" x="-22.049" y="-20" transform="matrix(0.1798 -1.0041 -1.0041 -0.1798 1497.6808 1060.6614)" overflow="visible"/>
			
				<use xlink:href="#Heart"  width="44.098" height="40" x="-22.049" y="-20" transform="matrix(0.7615 0.6788 0.6788 -0.7615 1552.4767 328.9125)" overflow="visible"/>
			
				<use xlink:href="#Heart"  width="44.098" height="40" x="-22.049" y="-20" transform="matrix(0.5131 -0.8816 -0.8816 -0.5131 871.7511 1390.2061)" overflow="visible"/>
			
				<use xlink:href="#Heart"  width="44.098" height="40" x="-22.049" y="-20" transform="matrix(-0.14 -1.0104 -1.0104 0.14 1400.6469 969.6982)" overflow="visible"/>
			
				<use xlink:href="#Heart"  width="44.098" height="40" x="-22.049" y="-20" transform="matrix(0.5985 0.826 0.826 -0.5985 1483.3438 440.4318)" overflow="visible"/>
			
				<use xlink:href="#Heart"  width="44.098" height="40" x="-22.049" y="-20" transform="matrix(0.9564 0.3547 0.3547 -0.9564 669.6481 1350.0706)" overflow="visible"/>
			
				<use xlink:href="#Heart"  width="44.098" height="40" x="-22.049" y="-20" transform="matrix(-1.0172 -0.076 -0.076 1.0172 1253.0345 585.243)" overflow="visible"/>
			
				<use xlink:href="#Heart"  width="44.098" height="40" x="-22.049" y="-20" transform="matrix(-0.6159 -0.8131 -0.8131 0.6159 229.3253 851.5882)" overflow="visible"/>
			
				<use xlink:href="#Heart"  width="44.098" height="40" x="-22.049" y="-20" transform="matrix(0.9084 -0.464 -0.464 -0.9084 750.4705 970.5684)" overflow="visible"/>
			
				<use xlink:href="#Heart"  width="44.098" height="40" x="-22.049" y="-20" transform="matrix(0.1635 -1.0069 -1.0069 -0.1635 1398.1416 755.2748)" overflow="visible"/>
			
				<use xlink:href="#Heart"  width="44.098" height="40" x="-22.049" y="-20" transform="matrix(-0.3989 0.9389 0.9389 0.3989 1690.9917 550.9065)" overflow="visible"/>
			
				<use xlink:href="#Heart"  width="44.098" height="40" x="-22.049" y="-20" transform="matrix(0.9337 -0.4108 -0.4108 -0.9337 1771.285 578.2167)" overflow="visible"/>
			
				<use xlink:href="#Heart"  width="44.098" height="40" x="-22.049" y="-20" transform="matrix(-0.9984 0.2093 0.2093 0.9984 998.4827 621.1223)" overflow="visible"/>
			
				<use xlink:href="#Heart"  width="44.098" height="40" x="-22.049" y="-20" transform="matrix(0.6936 -0.748 -0.748 -0.6936 1647.5133 797.0201)" overflow="visible"/>
			
				<use xlink:href="#Heart"  width="44.098" height="40" x="-22.049" y="-20" transform="matrix(-0.9969 -0.2161 -0.2161 0.9969 141.0592 679.9131)" overflow="visible"/>
			
				<use xlink:href="#Heart"  width="44.098" height="40" x="-22.049" y="-20" transform="matrix(-0.9908 0.2426 0.2426 0.9908 225.6216 116.306)" overflow="visible"/>
			
				<use xlink:href="#Heart"  width="44.098" height="40" x="-22.049" y="-20" transform="matrix(-0.9151 -0.4507 -0.4507 0.9151 770.3473 1483.319)" overflow="visible"/>
			
				<use xlink:href="#Heart"  width="44.098" height="40" x="-22.049" y="-20" transform="matrix(-0.967 -0.3246 -0.3246 0.967 983.2471 564.2999)" overflow="visible"/>
			
				<use xlink:href="#Heart"  width="44.098" height="40" x="-22.049" y="-20" transform="matrix(-0.8585 0.5509 0.5509 0.8585 347.523 823.4637)" overflow="visible"/>
			
				<use xlink:href="#Heart"  width="44.098" height="40" x="-22.049" y="-20" transform="matrix(0.656 -0.7811 -0.7811 -0.656 573.9191 224.2778)" overflow="visible"/>
			
				<use xlink:href="#Heart"  width="44.098" height="40" x="-22.049" y="-20" transform="matrix(0.7918 0.6431 0.6431 -0.7918 278.9219 218.3054)" overflow="visible"/>
			
				<use xlink:href="#Heart"  width="44.098" height="40" x="-22.049" y="-20" transform="matrix(-0.9679 0.3219 0.3219 0.9679 1645.8221 568.8806)" overflow="visible"/>
			
				<use xlink:href="#Heart"  width="44.098" height="40" x="-22.049" y="-20" transform="matrix(0.6108 0.8169 0.8169 -0.6108 335.4321 212.675)" overflow="visible"/>
			
				<use xlink:href="#Heart"  width="44.098" height="40" x="-22.049" y="-20" transform="matrix(0.8246 -0.6005 -0.6005 -0.8246 1605.835 410.93)" overflow="visible"/>
			
				<use xlink:href="#Heart"  width="44.098" height="40" x="-22.049" y="-20" transform="matrix(0.8049 0.6267 0.6267 -0.8049 970.8403 484.3762)" overflow="visible"/>
			
				<use xlink:href="#Heart"  width="44.098" height="40" x="-22.049" y="-20" transform="matrix(0.804 -0.6278 -0.6278 -0.804 458.7577 1209.7113)" overflow="visible"/>
			
				<use xlink:href="#Heart"  width="44.098" height="40" x="-22.049" y="-20" transform="matrix(0.4159 -0.9314 -0.9314 -0.4159 1660.7767 382.9214)" overflow="visible"/>
			
				<use xlink:href="#Heart"  width="44.098" height="40" x="-22.049" y="-20" transform="matrix(1.0006 -0.1985 -0.1985 -1.0006 1214.8655 187.2644)" overflow="visible"/>
			
				<use xlink:href="#Heart"  width="44.098" height="40" x="-22.049" y="-20" transform="matrix(0.821 -0.6054 -0.6054 -0.821 232.1456 190.8799)" overflow="visible"/>
			
				<use xlink:href="#Heart"  width="44.098" height="40" x="-22.049" y="-20" transform="matrix(1.0013 0.1949 0.1949 -1.0013 1074.0001 1290.5104)" overflow="visible"/>
			
				<use xlink:href="#Heart"  width="44.098" height="40" x="-22.049" y="-20" transform="matrix(-1.0167 -0.0827 -0.0827 1.0167 364.676 1113.2126)" overflow="visible"/>
			
				<use xlink:href="#Heart"  width="44.098" height="40" x="-22.049" y="-20" transform="matrix(0.8779 0.5195 0.5195 -0.8779 1048.6329 133.2168)" overflow="visible"/>
			
				<use xlink:href="#Heart"  width="44.098" height="40" x="-22.049" y="-20" transform="matrix(-0.4005 -0.9381 -0.9381 0.4005 1275.5887 200.1573)" overflow="visible"/>
			
				<use xlink:href="#Heart"  width="44.098" height="40" x="-22.049" y="-20" transform="matrix(0.8274 -0.5967 -0.5967 -0.8274 63.1775 609.833)" overflow="visible"/>
			
				<use xlink:href="#Heart"  width="44.098" height="40" x="-22.049" y="-20" transform="matrix(0.7991 0.6341 0.6341 -0.7991 1563.1685 494.1568)" overflow="visible"/>
			
				<use xlink:href="#Heart"  width="44.098" height="40" x="-22.049" y="-20" transform="matrix(-0.6292 -0.8029 -0.8029 0.6292 1384.6144 216.4754)" overflow="visible"/>
			
				<use xlink:href="#Heart"  width="44.098" height="40" x="-22.049" y="-20" transform="matrix(0.6152 -0.8137 -0.8137 -0.6152 261.8797 549.0298)" overflow="visible"/>
			
				<use xlink:href="#Heart"  width="44.098" height="40" x="-22.049" y="-20" transform="matrix(-1.0055 -0.1719 -0.1719 1.0055 1357.8046 1119.1863)" overflow="visible"/>
			
				<use xlink:href="#Heart"  width="44.098" height="40" x="-22.049" y="-20" transform="matrix(-0.3946 -0.9406 -0.9406 0.3946 1754.7269 318.7871)" overflow="visible"/>
			
				<use xlink:href="#Heart"  width="44.098" height="40" x="-22.049" y="-20" transform="matrix(0.6448 0.7904 0.7904 -0.6448 810.2517 186.5923)" overflow="visible"/>
			
				<use xlink:href="#Heart"  width="44.098" height="40" x="-22.049" y="-20" transform="matrix(1.0012 -0.1953 -0.1953 -1.0012 525.7681 483.1726)" overflow="visible"/>
			
				<use xlink:href="#Heart"  width="44.098" height="40" x="-22.049" y="-20" transform="matrix(1.0051 0.174 0.174 -1.0051 1537.6079 382.1051)" overflow="visible"/>
			
				<use xlink:href="#Heart"  width="44.098" height="40" x="-22.049" y="-20" transform="matrix(0.1027 1.0149 1.0149 -0.1027 1126.2505 970.1282)" overflow="visible"/>
			
				<use xlink:href="#Heart"  width="44.098" height="40" x="-22.049" y="-20" transform="matrix(0.9704 0.3145 0.3145 -0.9704 1418.9746 706.5419)" overflow="visible"/>
			
				<use xlink:href="#Heart"  width="44.098" height="40" x="-22.049" y="-20" transform="matrix(0.9886 0.2514 0.2514 -0.9886 1628.7914 893.5912)" overflow="visible"/>
			
				<use xlink:href="#Heart"  width="44.098" height="40" x="-22.049" y="-20" transform="matrix(0.9011 0.4782 0.4782 -0.9011 1544.4698 547.1039)" overflow="visible"/>
			
				<use xlink:href="#Heart"  width="44.098" height="40" x="-22.049" y="-20" transform="matrix(-0.8471 -0.5683 -0.5683 0.8471 924.999 1382.3177)" overflow="visible"/>
			
				<use xlink:href="#Heart"  width="44.098" height="40" x="-22.049" y="-20" transform="matrix(-0.026 -1.0197 -1.0197 0.026 1252.5068 897.8893)" overflow="visible"/>
			
				<use xlink:href="#Heart"  width="44.098" height="40" x="-22.049" y="-20" transform="matrix(0.8385 0.5809 0.5809 -0.8385 1562.4202 985.8112)" overflow="visible"/>
			
				<use xlink:href="#Heart"  width="44.098" height="40" x="-22.049" y="-20" transform="matrix(0.7436 -0.6982 -0.6982 -0.7436 306.0328 957.2559)" overflow="visible"/>
			
				<use xlink:href="#Heart"  width="44.098" height="40" x="-22.049" y="-20" transform="matrix(-0.7399 -0.7022 -0.7022 0.7399 1553.2837 432.346)" overflow="visible"/>
			
				<use xlink:href="#Heart"  width="44.098" height="40" x="-22.049" y="-20" transform="matrix(-1.0123 -0.1253 -0.1253 1.0123 584.7017 989.4678)" overflow="visible"/>
			
				<use xlink:href="#Heart"  width="44.098" height="40" x="-22.049" y="-20" transform="matrix(-0.0124 1.02 1.02 0.0124 1232.5461 1118.5297)" overflow="visible"/>
			
				<use xlink:href="#Heart"  width="44.098" height="40" x="-22.049" y="-20" transform="matrix(-0.2397 0.9915 0.9915 0.2397 1133.7466 1285.5446)" overflow="visible"/>
			
				<use xlink:href="#Heart"  width="44.098" height="40" x="-22.049" y="-20" transform="matrix(0.9703 0.3148 0.3148 -0.9703 1457.3903 754.6095)" overflow="visible"/>
			
				<use xlink:href="#Heart"  width="44.098" height="40" x="-22.049" y="-20" transform="matrix(0.7322 0.7102 0.7102 -0.7322 972.183 1387.7231)" overflow="visible"/>
			
				<use xlink:href="#Heart"  width="44.098" height="40" x="-22.049" y="-20" transform="matrix(0.0608 1.0182 1.0182 -0.0608 569.4224 102.2568)" overflow="visible"/>
			
				<use xlink:href="#Heart"  width="44.098" height="40" x="-22.049" y="-20" transform="matrix(-0.9887 0.2509 0.2509 0.9887 1294.8116 543.6252)" overflow="visible"/>
			
				<use xlink:href="#Heart"  width="44.098" height="40" x="-22.049" y="-20" transform="matrix(-0.5021 0.888 0.888 0.5021 118.7669 345.8392)" overflow="visible"/>
			
				<use xlink:href="#Heart"  width="44.098" height="40" x="-22.049" y="-20" transform="matrix(-0.6927 0.7488 0.7488 0.6927 914.8206 746.2643)" overflow="visible"/>
			
				<use xlink:href="#Heart"  width="44.098" height="40" x="-22.049" y="-20" transform="matrix(-0.3754 -0.9485 -0.9485 0.3754 43.4328 546.287)" overflow="visible"/>
			
				<use xlink:href="#Heart"  width="44.098" height="40" x="-22.049" y="-20" transform="matrix(-0.999 0.2062 0.2062 0.999 178.8222 232.3099)" overflow="visible"/>
			
				<use xlink:href="#Heart"  width="44.098" height="40" x="-22.049" y="-20" transform="matrix(-0.7129 0.7296 0.7296 0.7129 1241.4043 948.6783)" overflow="visible"/>
			
				<use xlink:href="#Heart"  width="44.098" height="40" x="-22.049" y="-20" transform="matrix(-0.3232 -0.9675 -0.9675 0.3232 484.7339 719.7433)" overflow="visible"/>
			
				<use xlink:href="#Heart"  width="44.098" height="40" x="-22.049" y="-20" transform="matrix(-0.0361 1.0194 1.0194 0.0361 1264.2688 1234.1624)" overflow="visible"/>
			
				<use xlink:href="#Heart"  width="44.098" height="40" x="-22.049" y="-20" transform="matrix(0.5778 0.8407 0.8407 -0.5778 570.0392 166.685)" overflow="visible"/>
			
				<use xlink:href="#Heart"  width="44.098" height="40" x="-22.049" y="-20" transform="matrix(-0.2535 -0.9881 -0.9881 0.2535 297.0375 271.1132)" overflow="visible"/>
			
				<use xlink:href="#Heart"  width="44.098" height="40" x="-22.049" y="-20" transform="matrix(-0.0873 -1.0163 -1.0163 0.0873 1702.5609 227.2561)" overflow="visible"/>
			
				<use xlink:href="#Heart"  width="44.098" height="40" x="-22.049" y="-20" transform="matrix(0.4875 -0.896 -0.896 -0.4875 1191.1692 969.8405)" overflow="visible"/>
			
				<use xlink:href="#Heart"  width="44.098" height="40" x="-22.049" y="-20" transform="matrix(-0.9708 0.3131 0.3131 0.9708 626.8989 1224.9523)" overflow="visible"/>
			
				<use xlink:href="#Heart"  width="44.098" height="40" x="-22.049" y="-20" transform="matrix(-0.2659 0.9848 0.9848 0.2659 467.4226 1150.1365)" overflow="visible"/>
			
				<use xlink:href="#Heart"  width="44.098" height="40" x="-22.049" y="-20" transform="matrix(0.918 -0.4447 -0.4447 -0.918 1073.2325 970.7344)" overflow="visible"/>
			
				<use xlink:href="#Heart"  width="44.098" height="40" x="-22.049" y="-20" transform="matrix(0.2658 -0.9848 -0.9848 -0.2658 729.9922 1172.0616)" overflow="visible"/>
			
				<use xlink:href="#Heart"  width="44.098" height="40" x="-22.049" y="-20" transform="matrix(1.0084 -0.1539 -0.1539 -1.0084 1560.6002 753.1634)" overflow="visible"/>
			
				<use xlink:href="#Heart"  width="44.098" height="40" x="-22.049" y="-20" transform="matrix(-0.975 -0.2998 -0.2998 0.975 1708.8617 346.0892)" overflow="visible"/>
			
				<use xlink:href="#Heart"  width="44.098" height="40" x="-22.049" y="-20" transform="matrix(-0.9352 0.4073 0.4073 0.9352 529.6493 892.4731)" overflow="visible"/>
			
				<use xlink:href="#Heart"  width="44.098" height="40" x="-22.049" y="-20" transform="matrix(-1.0019 0.1917 0.1917 1.0019 1385.7223 503.3405)" overflow="visible"/>
			
				<use xlink:href="#Heart"  width="44.098" height="40" x="-22.049" y="-20" transform="matrix(0.9663 -0.3267 -0.3267 -0.9663 1419.8184 376.0061)" overflow="visible"/>
			
				<use xlink:href="#Heart"  width="44.098" height="40" x="-22.049" y="-20" transform="matrix(0.4449 0.9179 0.9179 -0.4449 187.731 568.3636)" overflow="visible"/>
			
				<use xlink:href="#Heart"  width="44.098" height="40" x="-22.049" y="-20" transform="matrix(1.02 0.0067 0.0067 -1.02 748.8995 1223.4354)" overflow="visible"/>
			
				<use xlink:href="#Heart"  width="44.098" height="40" x="-22.049" y="-20" transform="matrix(1.0062 0.1673 0.1673 -1.0062 295.8957 623.0008)" overflow="visible"/>
			
				<use xlink:href="#Heart"  width="44.098" height="40" x="-22.049" y="-20" transform="matrix(-0.0681 1.0178 1.0178 0.0681 281.4788 88.1808)" overflow="visible"/>
			
				<use xlink:href="#Heart"  width="44.098" height="40" x="-22.049" y="-20" transform="matrix(-0.3983 0.9391 0.9391 0.3983 272.4483 1007.3725)" overflow="visible"/>
			
				<use xlink:href="#Heart"  width="44.098" height="40" x="-22.049" y="-20" transform="matrix(1.0091 0.149 0.149 -1.0091 126.7878 578.049)" overflow="visible"/>
			
				<use xlink:href="#Heart"  width="44.098" height="40" x="-22.049" y="-20" transform="matrix(0.8173 -0.6103 -0.6103 -0.8173 1136.8209 1346.5793)" overflow="visible"/>
			
				<use xlink:href="#Heart"  width="44.098" height="40" x="-22.049" y="-20" transform="matrix(0.961 -0.342 -0.342 -0.961 1109.8459 221.3625)" overflow="visible"/>
			
				<use xlink:href="#Heart"  width="44.098" height="40" x="-22.049" y="-20" transform="matrix(0.9512 -0.3684 -0.3684 -0.9512 1421.0813 650.7294)" overflow="visible"/>
			
				<use xlink:href="#Heart"  width="44.098" height="40" x="-22.049" y="-20" transform="matrix(0.9575 0.3518 0.3518 -0.9575 369.6326 552.6168)" overflow="visible"/>
			
				<use xlink:href="#Heart"  width="44.098" height="40" x="-22.049" y="-20" transform="matrix(-0.8834 0.5099 0.5099 0.8834 1327.9818 491.0355)" overflow="visible"/>
			
				<use xlink:href="#Heart"  width="44.098" height="40" x="-22.049" y="-20" transform="matrix(-0.8625 0.5446 0.5446 0.8625 453.3613 765.2535)" overflow="visible"/>
			
				<use xlink:href="#Heart"  width="44.098" height="40" x="-22.049" y="-20" transform="matrix(-0.7273 -0.7153 -0.7153 0.7273 316.067 718.9203)" overflow="visible"/>
			
				<use xlink:href="#Heart"  width="44.098" height="40" x="-22.049" y="-20" transform="matrix(-0.5626 -0.8509 -0.8509 0.5626 127.3289 788.4169)" overflow="visible"/>
			
				<use xlink:href="#Heart"  width="44.098" height="40" x="-22.049" y="-20" transform="matrix(-0.306 0.9731 0.9731 0.306 627.5218 186.8619)" overflow="visible"/>
			
				<use xlink:href="#Heart"  width="44.098" height="40" x="-22.049" y="-20" transform="matrix(0.8082 -0.6224 -0.6224 -0.8082 949.3665 271.7117)" overflow="visible"/>
			
				<use xlink:href="#Heart"  width="44.098" height="40" x="-22.049" y="-20" transform="matrix(0.7787 -0.6589 -0.6589 -0.7787 1448.793 597.045)" overflow="visible"/>
			
				<use xlink:href="#Heart"  width="44.098" height="40" x="-22.049" y="-20" transform="matrix(0.8809 -0.5144 -0.5144 -0.8809 163.3926 858.1234)" overflow="visible"/>
			
				<use xlink:href="#Heart"  width="44.098" height="40" x="-22.049" y="-20" transform="matrix(0.2655 0.9849 0.9849 -0.2655 1010.5286 1280.1777)" overflow="visible"/>
			
				<use xlink:href="#Heart"  width="44.098" height="40" x="-22.049" y="-20" transform="matrix(-0.7609 0.6794 0.6794 0.7609 647.2698 904.6628)" overflow="visible"/>
			
				<use xlink:href="#Heart"  width="44.098" height="40" x="-22.049" y="-20" transform="matrix(-0.3371 0.9627 0.9627 0.3371 596.7285 866.3119)" overflow="visible"/>
			
				<use xlink:href="#Heart"  width="44.098" height="40" x="-22.049" y="-20" transform="matrix(-0.7824 0.6545 0.6545 0.7824 1466.8829 682.5109)" overflow="visible"/>
			
				<use xlink:href="#Heart"  width="44.098" height="40" x="-22.049" y="-20" transform="matrix(-0.8863 0.505 0.505 0.8863 103.6018 244.1477)" overflow="visible"/>
			
				<use xlink:href="#Heart"  width="44.098" height="40" x="-22.049" y="-20" transform="matrix(0.9961 0.2198 0.2198 -0.9961 973.5223 224.1568)" overflow="visible"/>
			
				<use xlink:href="#Heart"  width="44.098" height="40" x="-22.049" y="-20" transform="matrix(0.4585 0.9112 0.9112 -0.4585 566.7513 284.5239)" overflow="visible"/>
			
				<use xlink:href="#Heart"  width="44.098" height="40" x="-22.049" y="-20" transform="matrix(0.4752 0.9026 0.9026 -0.4752 1372.4218 455.3067)" overflow="visible"/>
			
				<use xlink:href="#Heart"  width="44.098" height="40" x="-22.049" y="-20" transform="matrix(-0.8407 -0.5777 -0.5777 0.8407 1083.8884 258.7767)" overflow="visible"/>
			
				<use xlink:href="#Heart"  width="44.098" height="40" x="-22.049" y="-20" transform="matrix(-1.0141 0.1097 0.1097 1.0141 1003.7091 1222.8192)" overflow="visible"/>
			
				<use xlink:href="#Heart"  width="44.098" height="40" x="-22.049" y="-20" transform="matrix(0.7138 -0.7287 -0.7287 -0.7138 1148.1809 278.7088)" overflow="visible"/>
			
				<use xlink:href="#Heart"  width="44.098" height="40" x="-22.049" y="-20" transform="matrix(-0.8429 0.5745 0.5745 0.8429 635.5072 1292.3634)" overflow="visible"/>
			
				<use xlink:href="#Heart"  width="44.098" height="40" x="-22.049" y="-20" transform="matrix(1.0165 0.0855 0.0855 -1.0165 1288.5347 1003.602)" overflow="visible"/>
			
				<use xlink:href="#Heart"  width="44.098" height="40" x="-22.049" y="-20" transform="matrix(0.5578 0.854 0.854 -0.5578 1063.7229 1347.4023)" overflow="visible"/>
			
				<use xlink:href="#Heart"  width="44.098" height="40" x="-22.049" y="-20" transform="matrix(1.0189 0.0483 0.0483 -1.0189 1536.9879 96.026)" overflow="visible"/>
			
				<use xlink:href="#Heart"  width="44.098" height="40" x="-22.049" y="-20" transform="matrix(-0.9844 0.2673 0.2673 0.9844 387.0013 118.0835)" overflow="visible"/>
			
				<use xlink:href="#Heart"  width="44.098" height="40" x="-22.049" y="-20" transform="matrix(-0.8302 0.5927 0.5927 0.8302 198.4491 289.7568)" overflow="visible"/>
			
				<use xlink:href="#Heart"  width="44.098" height="40" x="-22.049" y="-20" transform="matrix(0.0715 1.0176 1.0176 -0.0715 1584.1217 118.4046)" overflow="visible"/>
			
				<use xlink:href="#Heart"  width="44.098" height="40" x="-22.049" y="-20" transform="matrix(-0.3672 -0.9517 -0.9517 0.3672 1378.019 96.597)" overflow="visible"/>
			
				<use xlink:href="#Heart"  width="44.098" height="40" x="-22.049" y="-20" transform="matrix(0.9581 0.35 0.35 -0.9581 1190.6641 1298.6271)" overflow="visible"/>
			
				<use xlink:href="#Heart"  width="44.098" height="40" x="-22.049" y="-20" transform="matrix(0.7863 -0.6498 -0.6498 -0.7863 852.5792 557.3518)" overflow="visible"/>
			
				<use xlink:href="#Heart"  width="44.098" height="40" x="-22.049" y="-20" transform="matrix(-1.0191 0.0433 0.0433 1.0191 1353.574 644.8069)" overflow="visible"/>
			
				<use xlink:href="#Heart"  width="44.098" height="40" x="-22.049" y="-20" transform="matrix(-0.8532 0.5591 0.5591 0.8532 1360.4031 803.0662)" overflow="visible"/>
			
				<use xlink:href="#Heart"  width="44.098" height="40" x="-22.049" y="-20" transform="matrix(-0.5881 -0.8335 -0.8335 0.5881 725.3716 1442.6316)" overflow="visible"/>
			
				<use xlink:href="#Heart"  width="44.098" height="40" x="-22.049" y="-20" transform="matrix(0.6862 -0.7548 -0.7548 -0.6862 1562.3412 234.1186)" overflow="visible"/>
			
				<use xlink:href="#Heart"  width="44.098" height="40" x="-22.049" y="-20" transform="matrix(1.02 -0.0103 -0.0103 -1.02 1123.6351 873.076)" overflow="visible"/>
			
				<use xlink:href="#Heart"  width="44.098" height="40" x="-22.049" y="-20" transform="matrix(-0.9975 -0.2133 -0.2133 0.9975 1354.011 553.8895)" overflow="visible"/>
			
				<use xlink:href="#Heart"  width="44.098" height="40" x="-22.049" y="-20" transform="matrix(-0.3068 0.9728 0.9728 0.3068 858.9116 253.1918)" overflow="visible"/>
			
				<use xlink:href="#Heart"  width="44.098" height="40" x="-22.049" y="-20" transform="matrix(-0.675 0.7648 0.7648 0.675 1522.9438 661.0375)" overflow="visible"/>
			
				<use xlink:href="#Heart"  width="44.098" height="40" x="-22.049" y="-20" transform="matrix(0.9908 -0.2425 -0.2425 -0.9908 415.7268 433.4929)" overflow="visible"/>
			
				<use xlink:href="#Heart"  width="44.098" height="40" x="-22.049" y="-20" transform="matrix(-0.8257 0.5989 0.5989 0.8257 422.9417 960.7573)" overflow="visible"/>
			
				<use xlink:href="#Heart"  width="44.098" height="40" x="-22.049" y="-20" transform="matrix(-1.0199 -0.0197 -0.0197 1.0199 1332.6007 194.0371)" overflow="visible"/>
			
				<use xlink:href="#Heart"  width="44.098" height="40" x="-22.049" y="-20" transform="matrix(0.8452 0.5711 0.5711 -0.8452 361.7629 611.1984)" overflow="visible"/>
			
				<use xlink:href="#Heart"  width="44.098" height="40" x="-22.049" y="-20" transform="matrix(-0.9179 -0.445 -0.445 0.9179 453.7876 1049.7383)" overflow="visible"/>
			
				<use xlink:href="#Heart"  width="44.098" height="40" x="-22.049" y="-20" transform="matrix(0.7649 -0.6749 -0.6749 -0.7649 582.0366 718.932)" overflow="visible"/>
			
				<use xlink:href="#Heart"  width="44.098" height="40" x="-22.049" y="-20" transform="matrix(-1.0191 0.0435 0.0435 1.0191 1014.0211 279.0565)" overflow="visible"/>
			
				<use xlink:href="#Heart"  width="44.098" height="40" x="-22.049" y="-20" transform="matrix(-0.9078 -0.4651 -0.4651 0.9078 1308.8302 1066.1532)" overflow="visible"/>
			
				<use xlink:href="#Heart"  width="44.098" height="40" x="-22.049" y="-20" transform="matrix(-0.7681 -0.6713 -0.6713 0.7681 495.955 518.337)" overflow="visible"/>
			
				<use xlink:href="#Heart"  width="44.098" height="40" x="-22.049" y="-20" transform="matrix(0.5324 0.8701 0.8701 -0.5324 1014.0686 523.1788)" overflow="visible"/>
			
				<use xlink:href="#Heart"  width="44.098" height="40" x="-22.049" y="-20" transform="matrix(-0.92 0.4406 0.4406 0.92 1342.3649 1023.2891)" overflow="visible"/>
			
				<use xlink:href="#Heart"  width="44.098" height="40" x="-22.049" y="-20" transform="matrix(-1.0197 -0.0265 -0.0265 1.0197 589.8493 1265.6603)" overflow="visible"/>
			
				<use xlink:href="#Heart"  width="44.098" height="40" x="-22.049" y="-20" transform="matrix(1.0197 0.0289 0.0289 -1.0197 917.788 703.5474)" overflow="visible"/>
			
				<use xlink:href="#Heart"  width="44.098" height="40" x="-22.049" y="-20" transform="matrix(-0.0657 -1.0179 -1.0179 0.0657 1050.4972 631.2429)" overflow="visible"/>
			
				<use xlink:href="#Heart"  width="44.098" height="40" x="-22.049" y="-20" transform="matrix(-0.336 0.9631 0.9631 0.336 679.152 862.7628)" overflow="visible"/>
			
				<use xlink:href="#Heart"  width="44.098" height="40" x="-22.049" y="-20" transform="matrix(0.4148 0.9319 0.9319 -0.4148 386.2728 495.6198)" overflow="visible"/>
			
				<use xlink:href="#Heart"  width="44.098" height="40" x="-22.049" y="-20" transform="matrix(0.0966 1.0155 1.0155 -0.0966 1281.9485 853.6351)" overflow="visible"/>
			
				<use xlink:href="#Heart"  width="44.098" height="40" x="-22.049" y="-20" transform="matrix(-0.8692 0.5339 0.5339 0.8692 145.4552 512.913)" overflow="visible"/>
			
				<use xlink:href="#Heart"  width="44.098" height="40" x="-22.049" y="-20" transform="matrix(-0.9734 0.3051 0.3051 0.9734 1077.8302 307.8108)" overflow="visible"/>
			
				<use xlink:href="#Heart"  width="44.098" height="40" x="-22.049" y="-20" transform="matrix(-0.6392 -0.795 -0.795 0.6392 1167.3885 1228.9064)" overflow="visible"/>
			
				<use xlink:href="#Heart"  width="44.098" height="40" x="-22.049" y="-20" transform="matrix(0.075 -1.0173 -1.0173 -0.075 1018.9485 926.7556)" overflow="visible"/>
			
				<use xlink:href="#Heart"  width="44.098" height="40" x="-22.049" y="-20" transform="matrix(1.0027 0.1874 0.1874 -1.0027 1310.5284 803.1279)" overflow="visible"/>
			
				<use xlink:href="#Heart"  width="44.098" height="40" x="-22.049" y="-20" transform="matrix(0.2067 0.9989 0.9989 -0.2067 458.1818 667.7145)" overflow="visible"/>
			
				<use xlink:href="#Heart"  width="44.098" height="40" x="-22.049" y="-20" transform="matrix(-0.5604 0.8524 0.8524 0.5604 250.5332 733.9852)" overflow="visible"/>
			
				<use xlink:href="#Heart"  width="44.098" height="40" x="-22.049" y="-20" transform="matrix(0.8395 -0.5794 -0.5794 -0.8395 1058.7341 1236.2604)" overflow="visible"/>
			
				<use xlink:href="#Heart"  width="44.098" height="40" x="-22.049" y="-20" transform="matrix(0.1868 -1.0028 -1.0028 -0.1868 818.3762 1529.6846)" overflow="visible"/>
			
				<use xlink:href="#Heart"  width="44.098" height="40" x="-22.049" y="-20" transform="matrix(-0.1522 1.0086 1.0086 0.1522 91.5651 405.9831)" overflow="visible"/>
			
				<use xlink:href="#Heart"  width="44.098" height="40" x="-22.049" y="-20" transform="matrix(-1.0111 0.135 0.135 1.0111 1307.6763 361.7537)" overflow="visible"/>
			
				<use xlink:href="#Heart"  width="44.098" height="40" x="-22.049" y="-20" transform="matrix(0.4929 0.8931 0.8931 -0.4929 455.4926 268.8373)" overflow="visible"/>
			
				<use xlink:href="#Heart"  width="44.098" height="40" x="-22.049" y="-20" transform="matrix(0.9858 -0.2621 -0.2621 -0.9858 912.2039 652.8066)" overflow="visible"/>
			
				<use xlink:href="#Heart"  width="44.098" height="40" x="-22.049" y="-20" transform="matrix(-0.9894 -0.2483 -0.2483 0.9894 1261.4495 147.636)" overflow="visible"/>
			
				<use xlink:href="#Heart"  width="44.098" height="40" x="-22.049" y="-20" transform="matrix(0.9864 0.2599 0.2599 -0.9864 1337.0818 1166.8899)" overflow="visible"/>
			
				<use xlink:href="#Heart"  width="44.098" height="40" x="-22.049" y="-20" transform="matrix(0.9903 -0.2444 -0.2444 -0.9903 93.8319 532.8743)" overflow="visible"/>
			
				<use xlink:href="#Heart"  width="44.098" height="40" x="-22.049" y="-20" transform="matrix(-0.1131 -1.0138 -1.0138 0.1131 1257.6136 794.4081)" overflow="visible"/>
			
				<use xlink:href="#Heart"  width="44.098" height="40" x="-22.049" y="-20" transform="matrix(0.5802 0.839 0.839 -0.5802 1532.0699 1029.6652)" overflow="visible"/>
			
				<use xlink:href="#Heart"  width="44.098" height="40" x="-22.049" y="-20" transform="matrix(-0.2839 -0.9798 -0.9798 0.2839 1734.3716 525.8386)" overflow="visible"/>
			
				<use xlink:href="#Heart"  width="44.098" height="40" x="-22.049" y="-20" transform="matrix(-0.9372 0.4027 0.4027 0.9372 1329.6956 864.3482)" overflow="visible"/>
			
				<use xlink:href="#Heart"  width="44.098" height="40" x="-22.049" y="-20" transform="matrix(0.4947 -0.8921 -0.8921 -0.4947 922.368 469.7015)" overflow="visible"/>
			
				<use xlink:href="#Heart"  width="44.098" height="40" x="-22.049" y="-20" transform="matrix(-0.2773 -0.9817 -0.9817 0.2773 595.1876 1167.2285)" overflow="visible"/>
			
				<use xlink:href="#Heart"  width="44.098" height="40" x="-22.049" y="-20" transform="matrix(-0.6996 0.7423 0.7423 0.6996 1462.8597 268.7467)" overflow="visible"/>
			
				<use xlink:href="#Heart"  width="44.098" height="40" x="-22.049" y="-20" transform="matrix(-1.0168 0.0815 0.0815 1.0168 392.5974 316.7351)" overflow="visible"/>
			
				<use xlink:href="#Heart"  width="44.098" height="40" x="-22.049" y="-20" transform="matrix(1.0067 0.1645 0.1645 -1.0067 474.9521 932.9318)" overflow="visible"/>
			
				<use xlink:href="#Heart"  width="44.098" height="40" x="-22.049" y="-20" transform="matrix(-0.4436 -0.9186 -0.9186 0.4436 395.0617 177.584)" overflow="visible"/>
			
				<use xlink:href="#Heart"  width="44.098" height="40" x="-22.049" y="-20" transform="matrix(0.5114 0.8826 0.8826 -0.5114 232.3902 450.4614)" overflow="visible"/>
			
				<use xlink:href="#Heart"  width="44.098" height="40" x="-22.049" y="-20" transform="matrix(0.8271 -0.5971 -0.5971 -0.8271 1322.5333 433.9406)" overflow="visible"/>
			
				<use xlink:href="#Heart"  width="44.098" height="40" x="-22.049" y="-20" transform="matrix(-0.205 -0.9993 -0.9993 0.205 243.9005 592.8862)" overflow="visible"/>
			
				<use xlink:href="#Heart"  width="44.098" height="40" x="-22.049" y="-20" transform="matrix(0.8308 0.5918 0.5918 -0.8308 389.2225 54.1211)" overflow="visible"/>
			
				<use xlink:href="#Heart"  width="44.098" height="40" x="-22.049" y="-20" transform="matrix(-0.9886 -0.2515 -0.2515 0.9886 431.768 823.4476)" overflow="visible"/>
			
				<use xlink:href="#Heart"  width="44.098" height="40" x="-22.049" y="-20" transform="matrix(0.0883 1.0162 1.0162 -0.0883 202.7576 754.7231)" overflow="visible"/>
			
				<use xlink:href="#Heart"  width="44.098" height="40" x="-22.049" y="-20" transform="matrix(-0.3546 0.9564 0.9564 0.3546 1551.354 165.4389)" overflow="visible"/>
			
				<use xlink:href="#Heart"  width="44.098" height="40" x="-22.049" y="-20" transform="matrix(-1.0193 0.04 0.04 1.0193 200.9623 693.6293)" overflow="visible"/>
			
				<use xlink:href="#Heart"  width="44.098" height="40" x="-22.049" y="-20" transform="matrix(-1.02 -0.0083 -0.0083 1.02 1778.8463 505.8552)" overflow="visible"/>
			
				<use xlink:href="#Heart"  width="44.098" height="40" x="-22.049" y="-20" transform="matrix(0.833 -0.5887 -0.5887 -0.833 528.0566 695.329)" overflow="visible"/>
			
				<use xlink:href="#Heart"  width="44.098" height="40" x="-22.049" y="-20" transform="matrix(-1.0188 0.0516 0.0516 1.0188 814.4787 593.5097)" overflow="visible"/>
			
				<use xlink:href="#Heart"  width="44.098" height="40" x="-22.049" y="-20" transform="matrix(-0.8208 -0.6057 -0.6057 0.8208 1447.8245 478.9031)" overflow="visible"/>
			
				<use xlink:href="#Heart"  width="44.098" height="40" x="-22.049" y="-20" transform="matrix(-0.0363 1.0194 1.0194 0.0363 689.9312 1267.5225)" overflow="visible"/>
			
				<use xlink:href="#Heart"  width="44.098" height="40" x="-22.049" y="-20" transform="matrix(0.8285 -0.5951 -0.5951 -0.8285 1229.9866 472.4018)" overflow="visible"/>
			
				<use xlink:href="#Heart"  width="44.098" height="40" x="-22.049" y="-20" transform="matrix(-0.0253 -1.0197 -1.0197 0.0253 398.6293 777.1803)" overflow="visible"/>
			
				<use xlink:href="#Heart"  width="44.098" height="40" x="-22.049" y="-20" transform="matrix(0.3033 -0.9739 -0.9739 -0.3033 1569.9772 702.806)" overflow="visible"/>
			
				<use xlink:href="#Heart"  width="44.098" height="40" x="-22.049" y="-20" transform="matrix(-0.425 0.9273 0.9273 0.425 1009.0003 1327.9507)" overflow="visible"/>
			
				<use xlink:href="#Heart"  width="44.098" height="40" x="-22.049" y="-20" transform="matrix(0.9976 0.2131 0.2131 -0.9976 473.1994 999.9257)" overflow="visible"/>
			
				<use xlink:href="#Heart"  width="44.098" height="40" x="-22.049" y="-20" transform="matrix(-0.1424 -1.0101 -1.0101 0.1424 1381.5037 43.0793)" overflow="visible"/>
			
				<use xlink:href="#Heart"  width="44.098" height="40" x="-22.049" y="-20" transform="matrix(0.3741 0.949 0.949 -0.3741 1271.5981 312.6004)" overflow="visible"/>
			
				<use xlink:href="#Heart"  width="44.098" height="40" x="-22.049" y="-20" transform="matrix(0.1523 -1.0086 -1.0086 -0.1523 774.611 657.9193)" overflow="visible"/>
			
				<use xlink:href="#Heart"  width="44.098" height="40" x="-22.049" y="-20" transform="matrix(1.0166 -0.0834 -0.0834 -1.0166 910.769 569.2075)" overflow="visible"/>
			
				<use xlink:href="#Heart"  width="44.098" height="40" x="-22.049" y="-20" transform="matrix(-0.9 -0.4801 -0.4801 0.9 1017.3051 1168.7996)" overflow="visible"/>
			
				<use xlink:href="#Heart"  width="44.098" height="40" x="-22.049" y="-20" transform="matrix(-0.7435 0.6984 0.6984 0.7435 1360.801 693.1035)" overflow="visible"/>
			
				<use xlink:href="#Heart"  width="44.098" height="40" x="-22.049" y="-20" transform="matrix(1.0087 0.1518 0.1518 -1.0087 391.506 866.5049)" overflow="visible"/>
			
				<use xlink:href="#Heart"  width="44.098" height="40" x="-22.049" y="-20" transform="matrix(0.0214 1.0198 1.0198 -0.0214 497.0735 575.4996)" overflow="visible"/>
			
				<use xlink:href="#Heart"  width="44.098" height="40" x="-22.049" y="-20" transform="matrix(-0.8992 -0.4816 -0.4816 0.8992 1320.2184 246.2372)" overflow="visible"/>
			
				<use xlink:href="#Heart"  width="44.098" height="40" x="-22.049" y="-20" transform="matrix(0.5621 0.8512 0.8512 -0.5621 1591.6664 589.9995)" overflow="visible"/>
			
				<use xlink:href="#Heart"  width="44.098" height="40" x="-22.049" y="-20" transform="matrix(0.7079 -0.7345 -0.7345 -0.7079 1770.6995 385.5198)" overflow="visible"/>
			
				<use xlink:href="#Heart"  width="44.098" height="40" x="-22.049" y="-20" transform="matrix(-0.0689 1.0177 1.0177 0.0689 1499.4773 990.1623)" overflow="visible"/>
			
				<use xlink:href="#Heart"  width="44.098" height="40" x="-22.049" y="-20" transform="matrix(0.9478 -0.377 -0.377 -0.9478 864.3738 740.5972)" overflow="visible"/>
			
				<use xlink:href="#Heart"  width="44.098" height="40" x="-22.049" y="-20" transform="matrix(0.5863 -0.8347 -0.8347 -0.5863 186.9807 809.037)" overflow="visible"/>
			
				<use xlink:href="#Heart"  width="44.098" height="40" x="-22.049" y="-20" transform="matrix(0.8619 -0.5456 -0.5456 -0.8619 1663.1423 315.3527)" overflow="visible"/>
			
				<use xlink:href="#Heart"  width="44.098" height="40" x="-22.049" y="-20" transform="matrix(-0.0533 -1.0187 -1.0187 0.0533 946.2107 523.1163)" overflow="visible"/>
			
				<use xlink:href="#Heart"  width="44.098" height="40" x="-22.049" y="-20" transform="matrix(-0.1152 -1.0135 -1.0135 0.1152 818.0165 498.4967)" overflow="visible"/>
			
				<use xlink:href="#Heart"  width="44.098" height="40" x="-22.049" y="-20" transform="matrix(-0.1909 1.002 1.002 0.1909 1450.9254 1013.1884)" overflow="visible"/>
			
				<use xlink:href="#Heart"  width="44.098" height="40" x="-22.049" y="-20" transform="matrix(-0.9418 0.3918 0.3918 0.9418 635.4622 820.3524)" overflow="visible"/>
			
				<use xlink:href="#Heart"  width="44.098" height="40" x="-22.049" y="-20" transform="matrix(-0.7296 -0.7129 -0.7129 0.7296 809.9918 1236.7455)" overflow="visible"/>
			
				<use xlink:href="#Heart"  width="44.098" height="40" x="-22.049" y="-20" transform="matrix(0.9717 -0.3105 -0.3105 -0.9717 1257.5867 642.4737)" overflow="visible"/>
			
				<use xlink:href="#Heart"  width="44.098" height="40" x="-22.049" y="-20" transform="matrix(0.9701 0.3153 0.3153 -0.9701 334.7021 1009.2304)" overflow="visible"/>
			
				<use xlink:href="#Heart"  width="44.098" height="40" x="-22.049" y="-20" transform="matrix(0.93 -0.4192 -0.4192 -0.93 584.186 1326.1333)" overflow="visible"/>
			
				<use xlink:href="#Heart"  width="44.098" height="40" x="-22.049" y="-20" transform="matrix(0.9868 0.2585 0.2585 -0.9868 367.652 715.4426)" overflow="visible"/>
			
				<use xlink:href="#Heart"  width="44.098" height="40" x="-22.049" y="-20" transform="matrix(-0.2855 -0.9793 -0.9793 0.2855 274.0771 679.927)" overflow="visible"/>
			
				<use xlink:href="#Heart"  width="44.098" height="40" x="-22.049" y="-20" transform="matrix(-1.0143 -0.1081 -0.1081 1.0143 562.103 537.6586)" overflow="visible"/>
			
				<use xlink:href="#Heart"  width="44.098" height="40" x="-22.049" y="-20" transform="matrix(-0.5373 -0.8671 -0.8671 0.5373 192.4073 345.2509)" overflow="visible"/>
			
				<use xlink:href="#Heart"  width="44.098" height="40" x="-22.049" y="-20" transform="matrix(0.904 -0.4725 -0.4725 -0.904 581.5881 1056.8032)" overflow="visible"/>
			
				<use xlink:href="#Heart"  width="44.098" height="40" x="-22.049" y="-20" transform="matrix(0.1615 -1.0072 -1.0072 -0.1615 1439.0841 231.1325)" overflow="visible"/>
			
				<use xlink:href="#Heart"  width="44.098" height="40" x="-22.049" y="-20" transform="matrix(-0.4024 0.9373 0.9373 0.4024 1331.952 295.5382)" overflow="visible"/>
			
				<use xlink:href="#Heart"  width="44.098" height="40" x="-22.049" y="-20" transform="matrix(-0.9846 0.2665 0.2665 0.9846 1169.8167 370.0735)" overflow="visible"/>
			
				<use xlink:href="#Heart"  width="44.098" height="40" x="-22.049" y="-20" transform="matrix(-0.3472 -0.9592 -0.9592 0.3472 1672.9077 684.0298)" overflow="visible"/>
			
				<use xlink:href="#Heart"  width="44.098" height="40" x="-22.049" y="-20" transform="matrix(-0.7563 0.6845 0.6845 0.7563 1102.9967 1441.5597)" overflow="visible"/>
			
				<use xlink:href="#Heart"  width="44.098" height="40" x="-22.049" y="-20" transform="matrix(0.8564 0.5541 0.5541 -0.8564 521.1561 1172.8522)" overflow="visible"/>
			
				<use xlink:href="#Heart"  width="44.098" height="40" x="-22.049" y="-20" transform="matrix(0.7854 0.6509 0.6509 -0.7854 1368.6586 340.4487)" overflow="visible"/>
			
				<use xlink:href="#Heart"  width="44.098" height="40" x="-22.049" y="-20" transform="matrix(0.29 0.978 0.978 -0.29 956.9218 1434.6091)" overflow="visible"/>
			
				<use xlink:href="#Heart"  width="44.098" height="40" x="-22.049" y="-20" transform="matrix(1.0193 -0.04 -0.04 -1.0193 1621.9883 687.2004)" overflow="visible"/>
			
				<use xlink:href="#Heart"  width="44.098" height="40" x="-22.049" y="-20" transform="matrix(-0.8718 -0.5296 -0.5296 0.8718 728.1094 1383.7996)" overflow="visible"/>
			
				<use xlink:href="#Heart"  width="44.098" height="40" x="-22.049" y="-20" transform="matrix(0.995 0.2246 0.2246 -0.995 1666.8489 503.3258)" overflow="visible"/>
			
				<use xlink:href="#Heart"  width="44.098" height="40" x="-22.049" y="-20" transform="matrix(-0.8155 -0.6128 -0.6128 0.8155 1602.4906 274.7466)" overflow="visible"/>
			
				<use xlink:href="#Heart"  width="44.098" height="40" x="-22.049" y="-20" transform="matrix(0.988 0.2539 0.2539 -0.988 1313.5403 92.842)" overflow="visible"/>
			
				<use xlink:href="#Heart"  width="44.098" height="40" x="-22.049" y="-20" transform="matrix(0.4615 0.9097 0.9097 -0.4615 1052.3956 1441.8904)" overflow="visible"/>
			
				<use xlink:href="#Heart"  width="44.098" height="40" x="-22.049" y="-20" transform="matrix(1.015 0.1013 0.1013 -1.015 447.7757 207.1932)" overflow="visible"/>
			
				<use xlink:href="#Heart"  width="44.098" height="40" x="-22.049" y="-20" transform="matrix(-0.5668 0.8481 0.8481 0.5668 1696.5822 774.245)" overflow="visible"/>
			
				<use xlink:href="#Heart"  width="44.098" height="40" x="-22.049" y="-20" transform="matrix(-1.0198 0.0244 0.0244 1.0198 1200.7462 416.8438)" overflow="visible"/>
			
				<use xlink:href="#Heart"  width="44.098" height="40" x="-22.049" y="-20" transform="matrix(-0.8442 0.5725 0.5725 0.8442 1429.9366 51.8387)" overflow="visible"/>
			
				<use xlink:href="#Heart"  width="44.098" height="40" x="-22.049" y="-20" transform="matrix(0.6244 0.8066 0.8066 -0.6244 1128.7939 338.7635)" overflow="visible"/>
			
				<use xlink:href="#Heart"  width="44.098" height="40" x="-22.049" y="-20" transform="matrix(-0.8086 0.6219 0.6219 0.8086 732.8152 242.5985)" overflow="visible"/>
			
				<use xlink:href="#Heart"  width="44.098" height="40" x="-22.049" y="-20" transform="matrix(0.9099 -0.4612 -0.4612 -0.9099 443.5917 380.7841)" overflow="visible"/>
			
				<use xlink:href="#Heart"  width="44.098" height="40" x="-22.049" y="-20" transform="matrix(0.985 -0.2653 -0.2653 -0.985 1005.4885 1461.9851)" overflow="visible"/>
			
				<use xlink:href="#Heart"  width="44.098" height="40" x="-22.049" y="-20" transform="matrix(0.1107 1.014 1.014 -0.1107 1649.7406 629.1456)" overflow="visible"/>
			
				<use xlink:href="#Heart"  width="44.098" height="40" x="-22.049" y="-20" transform="matrix(0.9837 -0.27 -0.27 -0.9837 200.2635 910.3669)" overflow="visible"/>
			
				<use xlink:href="#Heart"  width="44.098" height="40" x="-22.049" y="-20" transform="matrix(-0.9967 0.2172 0.2172 0.9967 255.7164 322.8241)" overflow="visible"/>
			
				<use xlink:href="#Heart"  width="44.098" height="40" x="-22.049" y="-20" transform="matrix(-0.201 -1.0001 -1.0001 0.201 809.9697 705.1692)" overflow="visible"/>
			
				<use xlink:href="#Heart"  width="44.098" height="40" x="-22.049" y="-20" transform="matrix(0.5784 0.8402 0.8402 -0.5784 1477.7821 636.3842)" overflow="visible"/>
			
				<use xlink:href="#Heart"  width="44.098" height="40" x="-22.049" y="-20" transform="matrix(-0.2214 -0.9957 -0.9957 0.2214 577.9524 808.1331)" overflow="visible"/>
			
				<use xlink:href="#Heart"  width="44.098" height="40" x="-22.049" y="-20" transform="matrix(-0.0741 1.0174 1.0174 0.0741 1262.568 413.9793)" overflow="visible"/>
			
				<use xlink:href="#Heart"  width="44.098" height="40" x="-22.049" y="-20" transform="matrix(0.9047 0.4712 0.4712 -0.9047 1307.7986 610.7712)" overflow="visible"/>
			
				<use xlink:href="#Heart"  width="44.098" height="40" x="-22.049" y="-20" transform="matrix(1.0128 -0.1218 -0.1218 -1.0128 1496.2649 144.0577)" overflow="visible"/>
			
				<use xlink:href="#Heart"  width="44.098" height="40" x="-22.049" y="-20" transform="matrix(-1.0089 -0.1504 -0.1504 1.0089 1364.9491 916.377)" overflow="visible"/>
			
				<use xlink:href="#Heart"  width="44.098" height="40" x="-22.049" y="-20" transform="matrix(-0.6958 -0.7459 -0.7459 0.6958 1481.084 527.9091)" overflow="visible"/>
			
				<use xlink:href="#Heart"  width="44.098" height="40" x="-22.049" y="-20" transform="matrix(-1.0042 -0.1792 -0.1792 1.0042 180.0963 155.3271)" overflow="visible"/>
			
				<use xlink:href="#Heart"  width="44.098" height="40" x="-22.049" y="-20" transform="matrix(0.7209 0.7216 0.7216 -0.7209 939.1416 616.5638)" overflow="visible"/>
			
				<use xlink:href="#Heart"  width="44.098" height="40" x="-22.049" y="-20" transform="matrix(-0.8461 0.5698 0.5698 0.8461 1582.9762 792.1931)" overflow="visible"/>
			
				<use xlink:href="#Heart"  width="44.098" height="40" x="-22.049" y="-20" transform="matrix(0.9851 -0.2648 -0.2648 -0.9851 638.9034 968.2418)" overflow="visible"/>
			
				<use xlink:href="#Heart"  width="44.098" height="40" x="-22.049" y="-20" transform="matrix(0.2224 -0.9955 -0.9955 -0.2224 1383.5619 157.9879)" overflow="visible"/>
			
				<use xlink:href="#Heart"  width="44.098" height="40" x="-22.049" y="-20" transform="matrix(0.6458 0.7896 0.7896 -0.6458 100.5857 472.3106)" overflow="visible"/>
			
				<use xlink:href="#Heart"  width="44.098" height="40" x="-22.049" y="-20" transform="matrix(-0.5341 0.8691 0.8691 0.5341 232.3651 955.1089)" overflow="visible"/>
			
				<use xlink:href="#Heart"  width="44.098" height="40" x="-22.049" y="-20" transform="matrix(-0.7033 -0.7388 -0.7388 0.7033 1331.2465 33.7056)" overflow="visible"/>
			
				<use xlink:href="#Heart"  width="44.098" height="40" x="-22.049" y="-20" transform="matrix(-0.9895 0.2479 0.2479 0.9895 433.3223 89.1127)" overflow="visible"/>
			
				<use xlink:href="#Heart"  width="44.098" height="40" x="-22.049" y="-20" transform="matrix(0.2013 1 1 -0.2013 1143.1573 922.9811)" overflow="visible"/>
			
				<use xlink:href="#Heart"  width="44.098" height="40" x="-22.049" y="-20" transform="matrix(-0.3762 -0.9482 -0.9482 0.3762 318.0907 382.9386)" overflow="visible"/>
			
				<use xlink:href="#Heart"  width="44.098" height="40" x="-22.049" y="-20" transform="matrix(0.0734 -1.0174 -1.0174 -0.0734 534.6125 1282.7417)" overflow="visible"/>
			
				<use xlink:href="#Heart"  width="44.098" height="40" x="-22.049" y="-20" transform="matrix(-0.525 -0.8746 -0.8746 0.525 1425.8142 908.1415)" overflow="visible"/>
			
				<use xlink:href="#Heart"  width="44.098" height="40" x="-22.049" y="-20" transform="matrix(-0.6094 0.818 0.818 0.6094 397.1391 243.577)" overflow="visible"/>
			
				<use xlink:href="#Heart"  width="44.098" height="40" x="-22.049" y="-20" transform="matrix(-0.471 -0.9048 -0.9048 0.471 1082.2694 906.2686)" overflow="visible"/>
			
				<use xlink:href="#Heart"  width="44.098" height="40" x="-22.049" y="-20" transform="matrix(-0.2495 -0.9891 -0.9891 0.2495 1108.942 1230.4481)" overflow="visible"/>
			
				<use xlink:href="#Heart"  width="44.098" height="40" x="-22.049" y="-20" transform="matrix(0.9653 0.3297 0.3297 -0.9653 674.2017 281.7151)" overflow="visible"/>
			
				<use xlink:href="#Heart"  width="44.098" height="40" x="-22.049" y="-20" transform="matrix(-0.2773 0.9816 0.9816 0.2773 1610.2928 524.2753)" overflow="visible"/>
			
				<use xlink:href="#Heart"  width="44.098" height="40" x="-22.049" y="-20" transform="matrix(-0.434 0.9231 0.9231 0.434 1610.8416 739.0244)" overflow="visible"/>
			
				<use xlink:href="#Heart"  width="44.098" height="40" x="-22.049" y="-20" transform="matrix(0.3686 0.9512 0.9512 -0.3686 1421.8661 1136.845)" overflow="visible"/>
			
				<use xlink:href="#Heart"  width="44.098" height="40" x="-22.049" y="-20" transform="matrix(-0.3043 -0.9736 -0.9736 0.3043 355.4516 437.6124)" overflow="visible"/>
			
				<use xlink:href="#Heart"  width="44.098" height="40" x="-22.049" y="-20" transform="matrix(0.7024 -0.7397 -0.7397 -0.7024 495.3426 817.4525)" overflow="visible"/>
			
				<use xlink:href="#Heart"  width="44.098" height="40" x="-22.049" y="-20" transform="matrix(0.222 -0.9956 -0.9956 -0.222 1284.6465 741.7759)" overflow="visible"/>
			
				<use xlink:href="#Heart"  width="44.098" height="40" x="-22.049" y="-20" transform="matrix(-1.0182 -0.0617 -0.0617 1.0182 966.7572 669.4321)" overflow="visible"/>
			
				<use xlink:href="#Heart"  width="44.098" height="40" x="-22.049" y="-20" transform="matrix(-0.6601 -0.7777 -0.7777 0.6601 1012.0244 170.2083)" overflow="visible"/>
			
				<use xlink:href="#Heart"  width="44.098" height="40" x="-22.049" y="-20" transform="matrix(-0.6277 -0.8041 -0.8041 0.6277 299.594 436.6606)" overflow="visible"/>
			
				<use xlink:href="#Heart"  width="44.098" height="40" x="-22.049" y="-20" transform="matrix(-0.5683 0.8471 0.8471 0.5683 1237.7983 1171.5178)" overflow="visible"/>
			
				<use xlink:href="#Heart"  width="44.098" height="40" x="-22.049" y="-20" transform="matrix(0.331 0.9649 0.9649 -0.331 586.9473 52.9219)" overflow="visible"/>
			
				<use xlink:href="#Heart"  width="44.098" height="40" x="-22.049" y="-20" transform="matrix(0.6346 -0.7987 -0.7987 -0.6346 120.3203 634.2772)" overflow="visible"/>
			
				<use xlink:href="#Heart"  width="44.098" height="40" x="-22.049" y="-20" transform="matrix(-0.5495 0.8594 0.8594 0.5495 1423.4862 422.7701)" overflow="visible"/>
			
				<use xlink:href="#Heart"  width="44.098" height="40" x="-22.049" y="-20" transform="matrix(0.0265 1.0197 1.0197 -0.0265 1317.913 143.7989)" overflow="visible"/>
			
				<use xlink:href="#Heart"  width="44.098" height="40" x="-22.049" y="-20" transform="matrix(-0.9986 0.2079 0.2079 0.9986 501.529 1107.7566)" overflow="visible"/>
			
				<use xlink:href="#Heart"  width="44.098" height="40" x="-22.049" y="-20" transform="matrix(0.4346 0.9229 0.9229 -0.4346 1298.8333 930.7643)" overflow="visible"/>
			
				<use xlink:href="#Heart"  width="44.098" height="40" x="-22.049" y="-20" transform="matrix(0.7121 -0.7303 -0.7303 -0.7121 1480.2186 385.2173)" overflow="visible"/>
			
				<use xlink:href="#Heart"  width="44.098" height="40" x="-22.049" y="-20" transform="matrix(-0.3683 -0.9513 -0.9513 0.3683 1387.0919 595.4307)" overflow="visible"/>
			
				<use xlink:href="#Heart"  width="44.098" height="40" x="-22.049" y="-20" transform="matrix(0.4694 -0.9056 -0.9056 -0.4694 439.457 610.3531)" overflow="visible"/>
			
				<use xlink:href="#Heart"  width="44.098" height="40" x="-22.049" y="-20" transform="matrix(0.9044 0.4718 0.4718 -0.9044 679.8713 220.1818)" overflow="visible"/>
			
				<use xlink:href="#Heart"  width="44.098" height="40" x="-22.049" y="-20" transform="matrix(0.7899 0.6454 0.6454 -0.7899 173.4293 631.579)" overflow="visible"/>
			
				<use xlink:href="#Heart"  width="44.098" height="40" x="-22.049" y="-20" transform="matrix(-0.5686 -0.8469 -0.8469 0.5686 1477.9789 804.6714)" overflow="visible"/>
			
				<use xlink:href="#Heart"  width="44.098" height="40" x="-22.049" y="-20" transform="matrix(-0.1104 1.0141 1.0141 0.1104 1242.2065 525.0276)" overflow="visible"/>
			
				<use xlink:href="#Heart"  width="44.098" height="40" x="-22.049" y="-20" transform="matrix(0.5684 -0.847 -0.847 -0.5684 1031.0367 1398.3719)" overflow="visible"/>
			
				<use xlink:href="#Heart"  width="44.098" height="40" x="-22.049" y="-20" transform="matrix(0.4824 -0.8988 -0.8988 -0.4824 1672.6281 741.8188)" overflow="visible"/>
			
				<use xlink:href="#Heart"  width="44.098" height="40" x="-22.049" y="-20" transform="matrix(1.0169 -0.0803 -0.0803 -1.0169 1207.3805 117.6286)" overflow="visible"/>
			
				<use xlink:href="#Heart"  width="44.098" height="40" x="-22.049" y="-20" transform="matrix(0.5249 0.8746 0.8746 -0.5249 503.1031 314.4544)" overflow="visible"/>
			
				<use xlink:href="#Heart"  width="44.098" height="40" x="-22.049" y="-20" transform="matrix(0.0379 -1.0194 -1.0194 -0.0379 1589.5378 643.7868)" overflow="visible"/>
			
				<use xlink:href="#Heart"  width="44.098" height="40" x="-22.049" y="-20" transform="matrix(-0.9956 -0.2221 -0.2221 0.9956 339.4053 894.6483)" overflow="visible"/>
			
				<use xlink:href="#Heart"  width="44.098" height="40" x="-22.049" y="-20" transform="matrix(-0.6019 -0.8235 -0.8235 0.6019 381.1618 372.7093)" overflow="visible"/>
			
				<use xlink:href="#Heart"  width="44.098" height="40" x="-22.049" y="-20" transform="matrix(0.9046 0.4714 0.4714 -0.9046 1146.6703 1407.174)" overflow="visible"/>
			
				<use xlink:href="#Heart"  width="44.098" height="40" x="-22.049" y="-20" transform="matrix(0.5431 0.8635 0.8635 -0.5431 906.8195 1600.7874)" overflow="visible"/>
			
				<use xlink:href="#Heart"  width="44.098" height="40" x="-22.049" y="-20" transform="matrix(-0.3408 0.9615 0.9615 0.3408 421.5309 715.1387)" overflow="visible"/>
			
				<use xlink:href="#Heart"  width="44.098" height="40" x="-22.049" y="-20" transform="matrix(0.7905 -0.6447 -0.6447 -0.7905 629.051 257.2448)" overflow="visible"/>
			
				<use xlink:href="#Heart"  width="44.098" height="40" x="-22.049" y="-20" transform="matrix(0.9044 -0.4718 -0.4718 -0.9044 965.0979 1562.2119)" overflow="visible"/>
			
				<use xlink:href="#Heart"  width="44.098" height="40" x="-22.049" y="-20" transform="matrix(0.8766 -0.5216 -0.5216 -0.8766 1400.1633 281.1259)" overflow="visible"/>
			
				<use xlink:href="#Heart"  width="44.098" height="40" x="-22.049" y="-20" transform="matrix(1.0201 -0.0024 -0.0024 -1.0201 1201.751 311.0486)" overflow="visible"/>
			
				<use xlink:href="#Heart"  width="44.098" height="40" x="-22.049" y="-20" transform="matrix(0.161 -1.0073 -1.0073 -0.161 1502.4036 578.9009)" overflow="visible"/>
			
				<use xlink:href="#Heart"  width="44.098" height="40" x="-22.049" y="-20" transform="matrix(0.9622 0.3388 0.3388 -0.9622 294.1581 790.4734)" overflow="visible"/>
			
				<use xlink:href="#Heart"  width="44.098" height="40" x="-22.049" y="-20" transform="matrix(-0.9976 -0.2129 -0.2129 0.9976 146.8839 291.9595)" overflow="visible"/>
			
				<use xlink:href="#Heart"  width="44.098" height="40" x="-22.049" y="-20" transform="matrix(0.9757 0.2974 0.2974 -0.9757 743.8077 189.8732)" overflow="visible"/>
			
				<use xlink:href="#Heart"  width="44.098" height="40" x="-22.049" y="-20" transform="matrix(-0.9988 -0.207 -0.207 0.9988 1167.041 840.0614)" overflow="visible"/>
			
				<use xlink:href="#Heart"  width="44.098" height="40" x="-22.049" y="-20" transform="matrix(0.6 -0.8249 -0.8249 -0.6 285.8645 158.9756)" overflow="visible"/>
			
				<use xlink:href="#Heart"  width="44.098" height="40" x="-22.049" y="-20" transform="matrix(0.7922 0.6426 0.6426 -0.7922 1646.9569 257.6637)" overflow="visible"/>
			
				<use xlink:href="#Heart"  width="44.098" height="40" x="-22.049" y="-20" transform="matrix(0.9973 0.2143 0.2143 -0.9973 452.0412 148.5625)" overflow="visible"/>
			
				<use xlink:href="#Heart"  width="44.098" height="40" x="-22.049" y="-20" transform="matrix(0.5538 0.8566 0.8566 -0.5538 870.5286 1498.465)" overflow="visible"/>
			
				<use xlink:href="#Heart"  width="44.098" height="40" x="-22.049" y="-20" transform="matrix(0.8044 0.6272 0.6272 -0.8044 1416.3147 810.6196)" overflow="visible"/>
			
				<use xlink:href="#Heart"  width="44.098" height="40" x="-22.049" y="-20" transform="matrix(-0.6703 -0.769 -0.769 0.6703 206.8067 399.3911)" overflow="visible"/>
			
				<use xlink:href="#Heart"  width="44.098" height="40" x="-22.049" y="-20" transform="matrix(-0.4319 -0.9241 -0.9241 0.4319 705.2792 92.5543)" overflow="visible"/>
			
				<use xlink:href="#Heart"  width="44.098" height="40" x="-22.049" y="-20" transform="matrix(-0.9876 -0.2553 -0.2553 0.9876 337.5563 663.4958)" overflow="visible"/>
			
				<use xlink:href="#Heart"  width="44.098" height="40" x="-22.049" y="-20" transform="matrix(0.4391 -0.9207 -0.9207 -0.4391 693.6873 158.6011)" overflow="visible"/>
			
				<use xlink:href="#Heart"  width="44.098" height="40" x="-22.049" y="-20" transform="matrix(0.5403 0.8652 0.8652 -0.5403 557.5063 598.5782)" overflow="visible"/>
			
				<use xlink:href="#Heart"  width="44.098" height="40" x="-22.049" y="-20" transform="matrix(-0.1344 -1.0112 -1.0112 0.1344 1666.056 186.4205)" overflow="visible"/>
			
				<use xlink:href="#Heart"  width="44.098" height="40" x="-22.049" y="-20" transform="matrix(-0.9407 -0.3944 -0.3944 0.9407 295.9694 847.2982)" overflow="visible"/>
			
				<use xlink:href="#Heart"  width="44.098" height="40" x="-22.049" y="-20" transform="matrix(-0.9046 0.4715 0.4715 0.9046 141.684 402.9291)" overflow="visible"/>
			
				<use xlink:href="#Heart"  width="44.098" height="40" x="-22.049" y="-20" transform="matrix(0.3197 -0.9687 -0.9687 -0.3197 806.9019 1309.7521)" overflow="visible"/>
			
				<use xlink:href="#Heart"  width="44.098" height="40" x="-22.049" y="-20" transform="matrix(-0.8731 0.5275 0.5275 0.8731 1715.1233 274.5173)" overflow="visible"/>
			
				<use xlink:href="#Heart"  width="44.098" height="40" x="-22.049" y="-20" transform="matrix(0.5694 -0.8464 -0.8464 -0.5694 1013.7507 976.3498)" overflow="visible"/>
			
				<use xlink:href="#Heart"  width="44.098" height="40" x="-22.049" y="-20" transform="matrix(-0.7086 -0.7338 -0.7338 0.7086 405.5055 1004.8881)" overflow="visible"/>
			
				<use xlink:href="#Heart"  width="44.098" height="40" x="-22.049" y="-20" transform="matrix(-0.0588 1.0184 1.0184 0.0588 1596.4856 935.9352)" overflow="visible"/>
			
				<use xlink:href="#Heart"  width="44.098" height="40" x="-22.049" y="-20" transform="matrix(0.1877 1.0026 1.0026 -0.1877 1295.9893 1194.7057)" overflow="visible"/>
			
				<use xlink:href="#Heart"  width="44.098" height="40" x="-22.049" y="-20" transform="matrix(0.5878 -0.8337 -0.8337 -0.5878 1199.3671 904.9783)" overflow="visible"/>
			
				<use xlink:href="#Heart"  width="44.098" height="40" x="-22.049" y="-20" transform="matrix(-0.3988 0.9389 0.9389 0.3988 733.3607 301.3201)" overflow="visible"/>
			
				<use xlink:href="#Heart"  width="44.098" height="40" x="-22.049" y="-20" transform="matrix(0.9805 0.2814 0.2814 -0.9805 555.8231 1220.0066)" overflow="visible"/>
			
				<use xlink:href="#Heart"  width="44.098" height="40" x="-22.049" y="-20" transform="matrix(-0.7186 -0.724 -0.724 0.7186 1452.7477 855.9264)" overflow="visible"/>
			
				<use xlink:href="#Heart"  width="44.098" height="40" x="-22.049" y="-20" transform="matrix(1.0155 0.096 0.096 -1.0155 238.8307 252.6488)" overflow="visible"/>
			
				<use xlink:href="#Heart"  width="44.098" height="40" x="-22.049" y="-20" transform="matrix(-0.6661 -0.7726 -0.7726 0.6661 510.7389 625.5674)" overflow="visible"/>
			
				<use xlink:href="#Heart"  width="44.098" height="40" x="-22.049" y="-20" transform="matrix(0.429 0.9254 0.9254 -0.429 974.3511 731.6525)" overflow="visible"/>
			
				<use xlink:href="#Heart"  width="44.098" height="40" x="-22.049" y="-20" transform="matrix(-0.4491 -0.9159 -0.9159 0.4491 1293.5564 1122.9092)" overflow="visible"/>
			
				<use xlink:href="#Heart"  width="44.098" height="40" x="-22.049" y="-20" transform="matrix(0.0076 -1.02 -1.02 -0.0076 1223.2867 745.599)" overflow="visible"/>
			
				<use xlink:href="#Heart"  width="44.098" height="40" x="-22.049" y="-20" transform="matrix(0.9042 0.4721 0.4721 -0.9042 552.4243 338.8473)" overflow="visible"/>
			
				<use xlink:href="#Heart"  width="44.098" height="40" x="-22.049" y="-20" transform="matrix(0.3778 0.9475 0.9475 -0.3778 310.3838 568.0781)" overflow="visible"/>
			
				<use xlink:href="#Heart"  width="44.098" height="40" x="-22.049" y="-20" transform="matrix(-0.9601 -0.3446 -0.3446 0.9601 518.875 249.0772)" overflow="visible"/>
			
				<use xlink:href="#Heart"  width="44.098" height="40" x="-22.049" y="-20" transform="matrix(0.6912 -0.7502 -0.7502 -0.6912 436.1291 1110.1906)" overflow="visible"/>
			
				<use xlink:href="#Heart"  width="44.098" height="40" x="-22.049" y="-20" transform="matrix(0.9994 -0.204 -0.204 -0.9994 1713.5977 603.3919)" overflow="visible"/>
			
				<use xlink:href="#Heart"  width="44.098" height="40" x="-22.049" y="-20" transform="matrix(0.3151 0.9702 0.9702 -0.3151 945.2923 1493.036)" overflow="visible"/>
			
				<use xlink:href="#Heart"  width="44.098" height="40" x="-22.049" y="-20" transform="matrix(0.526 -0.874 -0.874 -0.526 717.5533 1324.6057)" overflow="visible"/>
			
				<use xlink:href="#Heart"  width="44.098" height="40" x="-22.049" y="-20" transform="matrix(-0.9219 -0.4366 -0.4366 0.9219 1393.5621 857.6749)" overflow="visible"/>
			
				<use xlink:href="#Heart"  width="44.098" height="40" x="-22.049" y="-20" transform="matrix(0.5158 0.8801 0.8801 -0.5158 147.3181 743.8029)" overflow="visible"/>
			
				<use xlink:href="#Heart"  width="44.098" height="40" x="-22.049" y="-20" transform="matrix(0.205 -0.9993 -0.9993 -0.205 1401.192 1027.8213)" overflow="visible"/>
			
				<use xlink:href="#Heart"  width="44.098" height="40" x="-22.049" y="-20" transform="matrix(-0.0796 -1.0169 -1.0169 0.0796 94.2709 728.696)" overflow="visible"/>
			
				<use xlink:href="#Heart"  width="44.098" height="40" x="-22.049" y="-20" transform="matrix(0.2126 -0.9977 -0.9977 -0.2126 1035.9067 231.2867)" overflow="visible"/>
			
				<use xlink:href="#Heart"  width="44.098" height="40" x="-22.049" y="-20" transform="matrix(-0.649 -0.787 -0.787 0.649 1345.2137 965.8457)" overflow="visible"/>
			
				<use xlink:href="#Heart"  width="44.098" height="40" x="-22.049" y="-20" transform="matrix(-0.9428 -0.3894 -0.3894 0.9428 338.6041 135.4742)" overflow="visible"/>
			
				<use xlink:href="#Heart"  width="44.098" height="40" x="-22.049" y="-20" transform="matrix(0.3578 0.9552 0.9552 -0.3578 1714.8337 412.6347)" overflow="visible"/>
			
				<use xlink:href="#Heart"  width="44.098" height="40" x="-22.049" y="-20" transform="matrix(1.0149 0.1028 0.1028 -1.0149 243.1692 802.7068)" overflow="visible"/>
			
				<use xlink:href="#Heart"  width="44.098" height="40" x="-22.049" y="-20" transform="matrix(-1.0153 -0.098 -0.098 1.0153 1616.8422 464.0493)" overflow="visible"/>
			
				<use xlink:href="#Heart"  width="44.098" height="40" x="-22.049" y="-20" transform="matrix(-0.3912 -0.942 -0.942 0.3912 874.9058 608.7819)" overflow="visible"/>
			
				<use xlink:href="#Heart"  width="44.098" height="40" x="-22.049" y="-20" transform="matrix(-0.5182 0.8786 0.8786 0.5182 494.5201 1233.3191)" overflow="visible"/>
			
				<use xlink:href="#Heart"  width="44.098" height="40" x="-22.049" y="-20" transform="matrix(-0.9225 0.4352 0.4352 0.9225 267.3109 490.5475)" overflow="visible"/>
			
				<use xlink:href="#Heart"  width="44.098" height="40" x="-22.049" y="-20" transform="matrix(-0.7287 0.7138 0.7138 0.7287 525.2067 948.8323)" overflow="visible"/>
			
				<use xlink:href="#Heart"  width="44.098" height="40" x="-22.049" y="-20" transform="matrix(-1.02 -0.0112 -0.0112 1.02 1487.7445 74.1718)" overflow="visible"/>
			
				<use xlink:href="#Heart"  width="44.098" height="40" x="-22.049" y="-20" transform="matrix(-0.9002 -0.4797 -0.4797 0.9002 141.4396 195.1873)" overflow="visible"/>
			
				<use xlink:href="#Heart"  width="44.098" height="40" x="-22.049" y="-20" transform="matrix(0.2612 0.9861 0.9861 -0.2612 446.358 487.3788)" overflow="visible"/>
			
				<use xlink:href="#Heart"  width="44.098" height="40" x="-22.049" y="-20" transform="matrix(0.9769 0.2936 0.2936 -0.9769 725.2932 906.9978)" overflow="visible"/>
			
				<use xlink:href="#Heart"  width="44.098" height="40" x="-22.049" y="-20" transform="matrix(0.8041 -0.6276 -0.6276 -0.8041 175.477 463.763)" overflow="visible"/>
			
				<use xlink:href="#Heart"  width="44.098" height="40" x="-22.049" y="-20" transform="matrix(0.0697 -1.0177 -1.0177 -0.0697 1241.391 1064.4249)" overflow="visible"/>
			
				<use xlink:href="#Heart"  width="44.098" height="40" x="-22.049" y="-20" transform="matrix(0.9354 -0.4069 -0.4069 -0.9354 236.9632 648.6957)" overflow="visible"/>
			
				<use xlink:href="#Heart"  width="44.098" height="40" x="-22.049" y="-20" transform="matrix(0.9643 0.3325 0.3325 -0.9643 654.1942 1173.2452)" overflow="visible"/>
			
				<use xlink:href="#Heart"  width="44.098" height="40" x="-22.049" y="-20" transform="matrix(-0.3706 -0.9504 -0.9504 0.3706 1709.8976 653.5193)" overflow="visible"/>
			
				<use xlink:href="#Heart"  width="44.098" height="40" x="-22.049" y="-20" transform="matrix(-1.0201 -0.0033 -0.0033 1.0201 781.9847 542.5297)" overflow="visible"/>
			
				<use xlink:href="#Heart"  width="44.098" height="40" x="-22.049" y="-20" transform="matrix(-1.0003 0.1996 0.1996 1.0003 803.2297 969.024)" overflow="visible"/>
			
				<use xlink:href="#Heart"  width="44.098" height="40" x="-22.049" y="-20" transform="matrix(-0.4819 -0.8991 -0.8991 0.4819 827.9337 642.6138)" overflow="visible"/>
			
				<use xlink:href="#Heart"  width="44.098" height="40" x="-22.049" y="-20" transform="matrix(-0.9935 0.2312 0.2312 0.9935 643.7444 68.3115)" overflow="visible"/>
			
				<use xlink:href="#Heart"  width="44.098" height="40" x="-22.049" y="-20" transform="matrix(0.763 -0.677 -0.677 -0.763 1563.436 898.2822)" overflow="visible"/>
			
				<use xlink:href="#Heart"  width="44.098" height="40" x="-22.049" y="-20" transform="matrix(-0.9374 0.4022 0.4022 0.9374 38.9506 485.9773)" overflow="visible"/>
			
				<use xlink:href="#Heart"  width="44.098" height="40" x="-22.049" y="-20" transform="matrix(-0.9667 0.3256 0.3256 0.9667 1155.071 201.9579)" overflow="visible"/>
			
				<use xlink:href="#Heart"  width="44.098" height="40" x="-22.049" y="-20" transform="matrix(0.9105 -0.4599 -0.4599 -0.9105 1503.0933 331.49)" overflow="visible"/>
			
				<use xlink:href="#Heart"  width="44.098" height="40" x="-22.049" y="-20" transform="matrix(0.655 -0.782 -0.782 -0.655 767.8257 1354.2321)" overflow="visible"/>
			
				<use xlink:href="#Heart"  width="44.098" height="40" x="-22.049" y="-20" transform="matrix(0.6156 -0.8134 -0.8134 -0.6156 1215.1097 56.7325)" overflow="visible"/>
			
				<use xlink:href="#Heart"  width="44.098" height="40" x="-22.049" y="-20" transform="matrix(-0.9622 -0.3386 -0.3386 0.9622 569.678 650.4866)" overflow="visible"/>
			
				<use xlink:href="#Heart"  width="44.098" height="40" x="-22.049" y="-20" transform="matrix(-0.9619 -0.3396 -0.3396 0.9619 1236.759 1333.0455)" overflow="visible"/>
			
				<use xlink:href="#Heart"  width="44.098" height="40" x="-22.049" y="-20" transform="matrix(0.3615 0.9539 0.9539 -0.3615 77.481 305.5033)" overflow="visible"/>
			
				<use xlink:href="#Heart"  width="44.098" height="40" x="-22.049" y="-20" transform="matrix(-1.0201 0.0031 0.0031 1.0201 71.3479 669.4703)" overflow="visible"/>
			
				<use xlink:href="#Heart"  width="44.098" height="40" x="-22.049" y="-20" transform="matrix(0.6255 0.8058 0.8058 -0.6255 1017.577 690.7594)" overflow="visible"/>
			
				<use xlink:href="#Heart"  width="44.098" height="40" x="-22.049" y="-20" transform="matrix(0.8314 0.5911 0.5911 -0.8314 857.7401 472.8777)" overflow="visible"/>
			
				<use xlink:href="#Heart"  width="44.098" height="40" x="-22.049" y="-20" transform="matrix(0.6684 0.7705 0.7705 -0.6684 251.7975 387.2487)" overflow="visible"/>
			
				<use xlink:href="#Heart"  width="44.098" height="40" x="-22.049" y="-20" transform="matrix(0.0933 -1.0158 -1.0158 -0.0933 1233.3856 1011.5922)" overflow="visible"/>
			
				<use xlink:href="#Heart"  width="44.098" height="40" x="-22.049" y="-20" transform="matrix(0.6509 0.7854 0.7854 -0.6509 1722.6417 717.5777)" overflow="visible"/>
			
				<use xlink:href="#Heart"  width="44.098" height="40" x="-22.049" y="-20" transform="matrix(0.9014 0.4774 0.4774 -0.9014 616.2316 323.9881)" overflow="visible"/>
			
				<use xlink:href="#Heart"  width="44.098" height="40" x="-22.049" y="-20" transform="matrix(0.6492 0.7868 0.7868 -0.6492 1661.7184 843.2712)" overflow="visible"/>
			
				<use xlink:href="#Heart"  width="44.098" height="40" x="-22.049" y="-20" transform="matrix(-0.7203 -0.7222 -0.7222 0.7203 644.0294 376.3109)" overflow="visible"/>
			
				<use xlink:href="#Heart"  width="44.098" height="40" x="-22.049" y="-20" transform="matrix(0.8831 -0.5106 -0.5106 -0.8831 1510.4465 860.3979)" overflow="visible"/>
			
				<use xlink:href="#Heart"  width="44.098" height="40" x="-22.049" y="-20" transform="matrix(0.6645 0.7739 0.7739 -0.6645 514.2494 143.924)" overflow="visible"/>
			
				<use xlink:href="#Heart"  width="44.098" height="40" x="-22.049" y="-20" transform="matrix(1.0045 0.1776 0.1776 -1.0045 493.4808 92.2524)" overflow="visible"/>
			
				<use xlink:href="#Heart"  width="44.098" height="40" x="-22.049" y="-20" transform="matrix(0.9856 -0.263 -0.263 -0.9856 353.913 273.9001)" overflow="visible"/>
			
				<use xlink:href="#Heart"  width="44.098" height="40" x="-22.049" y="-20" transform="matrix(0.2108 -0.998 -0.998 -0.2108 533.322 1011.0892)" overflow="visible"/>
			
				<use xlink:href="#Heart"  width="44.098" height="40" x="-22.049" y="-20" transform="matrix(1.0117 0.13 0.13 -1.0117 323.9395 330.3932)" overflow="visible"/>
			
				<use xlink:href="#Heart"  width="44.098" height="40" x="-22.049" y="-20" transform="matrix(-0.3521 0.9574 0.9574 0.3521 325.5136 499.9536)" overflow="visible"/>
			
				<use xlink:href="#Heart"  width="44.098" height="40" x="-22.049" y="-20" transform="matrix(-0.8791 -0.5174 -0.5174 0.8791 516.9281 1055.2092)" overflow="visible"/>
			
				<use xlink:href="#Heart"  width="44.098" height="40" x="-22.049" y="-20" transform="matrix(0.0556 -1.0185 -1.0185 -0.0556 531.3051 763.7648)" overflow="visible"/>
			
				<use xlink:href="#Heart"  width="44.098" height="40" x="-22.049" y="-20" transform="matrix(0.8212 0.6052 0.6052 -0.8212 1413.451 549.533)" overflow="visible"/>
			
				<use xlink:href="#Heart"  width="44.098" height="40" x="-22.049" y="-20" transform="matrix(-0.9549 -0.3586 -0.3586 0.9549 1398.7168 1174.39)" overflow="visible"/>
			
				<use xlink:href="#Heart"  width="44.098" height="40" x="-22.049" y="-20" transform="matrix(-1.0194 0.0373 0.0373 1.0194 1624.5856 150.3565)" overflow="visible"/>
			
				<use xlink:href="#Heart"  width="44.098" height="40" x="-22.049" y="-20" transform="matrix(-0.8784 -0.5186 -0.5186 0.8784 538.7784 837.0267)" overflow="visible"/>
			
				<use xlink:href="#Heart"  width="44.098" height="40" x="-22.049" y="-20" transform="matrix(0.0051 -1.02 -1.02 -0.0051 1062.6068 184.5433)" overflow="visible"/>
			
				<use xlink:href="#Heart"  width="44.098" height="40" x="-22.049" y="-20" transform="matrix(-0.8274 0.5966 0.5966 0.8274 999.9592 1517.4603)" overflow="visible"/>
			
				<use xlink:href="#Heart"  width="44.098" height="40" x="-22.049" y="-20" transform="matrix(0.4052 0.9361 0.9361 -0.4052 1526.0747 946.0171)" overflow="visible"/>
			
				<use xlink:href="#Heart"  width="44.098" height="40" x="-22.049" y="-20" transform="matrix(0.6663 0.7724 0.7724 -0.6663 907.8988 1539.5244)" overflow="visible"/>
			
				<use xlink:href="#Heart"  width="44.098" height="40" x="-22.049" y="-20" transform="matrix(0.025 1.0198 1.0198 -0.025 1362.97 393.9007)" overflow="visible"/>
			
				<use xlink:href="#Heart"  width="44.098" height="40" x="-22.049" y="-20" transform="matrix(0.904 0.4725 0.4725 -0.904 503.7819 197.3275)" overflow="visible"/>
			
				<use xlink:href="#Heart"  width="44.098" height="40" x="-22.049" y="-20" transform="matrix(0.9977 -0.2123 -0.2123 -0.9977 1610.1952 210.4817)" overflow="visible"/>
			
				<use xlink:href="#Heart"  width="44.098" height="40" x="-22.049" y="-20" transform="matrix(-0.8746 0.5249 0.5249 0.8746 755.1506 128.8802)" overflow="visible"/>
			
				<use xlink:href="#Heart"  width="44.098" height="40" x="-22.049" y="-20" transform="matrix(0.5023 0.8878 0.8878 -0.5023 1752.4012 647.2274)" overflow="visible"/>
			
				<use xlink:href="#Heart"  width="44.098" height="40" x="-22.049" y="-20" transform="matrix(0.9152 0.4505 0.4505 -0.9152 1254.3732 96.7517)" overflow="visible"/>
			
				<use xlink:href="#Heart"  width="44.098" height="40" x="-22.049" y="-20" transform="matrix(0.9531 -0.3635 -0.3635 -0.9531 1245.9102 695.913)" overflow="visible"/>
			
				<use xlink:href="#Heart"  width="44.098" height="40" x="-22.049" y="-20" transform="matrix(0.8352 -0.5856 -0.5856 -0.8352 418.3552 915.9061)" overflow="visible"/>
			
				<use xlink:href="#Heart"  width="44.098" height="40" x="-22.049" y="-20" transform="matrix(-0.9676 0.3229 0.3229 0.9676 1127.7905 1173.4587)" overflow="visible"/>
			
				<use xlink:href="#Heart"  width="44.098" height="40" x="-22.049" y="-20" transform="matrix(-1.013 -0.1201 -0.1201 1.013 798.1006 279.5976)" overflow="visible"/>
			
				<use xlink:href="#Heart"  width="44.098" height="40" x="-22.049" y="-20" transform="matrix(-0.6894 0.7518 0.7518 0.6894 1155.0231 135.8282)" overflow="visible"/>
			
				<use xlink:href="#Heart"  width="44.098" height="40" x="-22.049" y="-20" transform="matrix(1.0067 0.1648 0.1648 -1.0067 1184.2838 1177.1949)" overflow="visible"/>
			
				<use xlink:href="#Heart"  width="44.098" height="40" x="-22.049" y="-20" transform="matrix(0.0168 -1.0199 -1.0199 -0.0168 587.9659 927.4665)" overflow="visible"/>
			
				<use xlink:href="#Heart"  width="44.098" height="40" x="-22.049" y="-20" transform="matrix(-0.8161 0.6119 0.6119 0.8161 785.9091 919.0762)" overflow="visible"/>
			
				<use xlink:href="#Heart"  width="44.098" height="40" x="-22.049" y="-20" transform="matrix(0.5514 0.8582 0.8582 -0.5514 1101.1788 101.1057)" overflow="visible"/>
			
				<use xlink:href="#Heart"  width="44.098" height="40" x="-22.049" y="-20" transform="matrix(1.0171 -0.0771 -0.0771 -1.0171 1224.5712 846.6)" overflow="visible"/>
			
				<use xlink:href="#Heart"  width="44.098" height="40" x="-22.049" y="-20" transform="matrix(-0.8357 -0.585 -0.585 0.8357 611.6842 427.3965)" overflow="visible"/>
			
				<use xlink:href="#Heart"  width="44.098" height="40" x="-22.049" y="-20" transform="matrix(-0.1525 -1.0086 -1.0086 0.1525 901.721 1442.1963)" overflow="visible"/>
			
				<use xlink:href="#Heart"  width="44.098" height="40" x="-22.049" y="-20" transform="matrix(-0.909 0.4628 0.4628 0.909 808.4938 1370.2574)" overflow="visible"/>
			
				<use xlink:href="#Heart"  width="44.098" height="40" x="-22.049" y="-20" transform="matrix(0.2593 0.9866 0.9866 -0.2593 1664.2373 441.1701)" overflow="visible"/>
			
				<use xlink:href="#Heart"  width="44.098" height="40" x="-22.049" y="-20" transform="matrix(-0.6689 -0.7701 -0.7701 0.6689 1309.7251 675.352)" overflow="visible"/>
		</g>
	</g>
</g>
</svg>
