<?xml version="1.0" encoding="utf-8"?>

<!DOCTYPE svg PUBLIC "-//W3C//DTD SVG 1.1//EN" "http://www.w3.org/Graphics/SVG/1.1/DTD/svg11.dtd">
<svg version="1.1" id="Layer_1" xmlns="http://www.w3.org/2000/svg" xmlns:xlink="http://www.w3.org/1999/xlink" x="0px" y="0px"
	 viewBox="0 0 1984.766 1633.636" enable-background="new 0 0 1984.766 1633.636" xml:space="preserve">
<g>
	<g>
		<path d="M1673.58,472.363c-0.005,0.038-0.013,0.075-0.019,0.113c0.052-0.004,0.109-0.004,0.157-0.011L1673.58,472.363z"/>
		<path d="M1900.797,743.003c-15.509-22.904-39.65-15.2-62.97-63.774c-1.686-3.512-1.621-3.578,1.601-5.508
			c18.432-11.043,27.861-27.009,36.217-67.993c1.062-5.206,3.981-8.374,9.708-8.688c18.002-0.984,12.411-15.416,24.924-16.159
			c-3.825-3.413-6.844-6.286-4.087-10.913c2.132-3.577,5.218-5.675,9.757-6.108c-3.309-5.021-6.497-9.097-11.941-11.126
			c7.564-10.585,18.462-9.36,18.289,0.079c-0.045,2.451-0.429,4.895-0.722,8.016c7.872-11.972,6.801-17.572-5.93-26.068
			c-16.649-11.111,3.765-8.15,8.705-27.762c3.141-12.467-17.323-18.504-18.598-18.284c-0.133,1.378,2.15,2.047,1.296,3.937
			c-15.419-8.684-29.426-3.601-31.41-18.579c-2.598,2.715-1.629,5.37-1.909,7.744c-0.377,3.203-2.683,2.842-3.797,0.823
			c-2.233-4.048-1.718-6.272-4.353-7.056c-2.827,5.539-5.307,12.014-7.194,5.914c-31.01-100.547-171.177-35.942-186.868,0.778
			c-0.975-3.945,1.609-6.623,2.048-9.802c-2.177,0.173-16.191,17.245-6.659,26.59c12.027,11.791,24.431,4.124,19.39,14.584
			c-4.474,9.285-8.999,13.68-7.465,19.541c1.008,3.852,7.523,10.642,12.015,12.376c-1.391-2.579-11.672-15.117-2.296-18.03
			c4.841-1.504,9.663-1.547,14.149,2.23c-4.204,4.251-6.259,9.222-6.709,15.038c3.991-0.359,6.559-2.634,5.514,2.929
			c-1.838,9.785,2.635,12.15-4.742,14.96c-0.277,2.933,6.006,2.307,4.267,8.564c-1.472,5.295-0.953,10.837-2.433,16.13
			c-5.073,18.142-4.405,19.098-1.352,20.959c3.712,2.263,10.182,9.368,7.826,13.034c-1.645,2.56-0.826,4.654,1.859,5.755
			c4.483,1.839-1.246,6.153,3.716,9.254c4.053,2.532,8.849,32.071,37.782,23.064c9.521-2.963,3.74,2.034,20.162,1.492
			c1.147-0.038,2.54-0.589,3.683,1.089c-5.448,3.897-12.257,2.557-19.335,4.978c11.07,0.674,20.188,4.467,29.85,5.447
			c0.922,0.094,2.003,0.25,2.319,1.185c4.502,13.314-0.339,11.398-2.624,13.701c4.995,0.17,5.166,0.291,5.521,4.337
			c5.453,62.151-15.767,60.541-23.315,65.927c-12.834,9.158-18.793,22.854-24.007,27.574c-4.87,4.41-6.299-2.235-11.196,4.889
			c-5.46,7.944-7.12,14.573-20.394,24.802c-21.492,16.564-27.66,26.207-5.319,61.737c2.427,3.859,2.239,4.292-6.273,24.477
			c-20.522,48.663-29.048,92.321-44.901,127.828c-4.027,9.021-3.925,9.265-12.354,3.359c-71.582-50.118-84.17-67.646-133.763-84.983
			c-18.175-6.354-51.914-11.552-61.833,4.192c-10.965,17.404-17.158,48.041-23.973,72.18c-5.151,18.241-8.657,32.95-35.995,67.066
			c-75.947,94.779-57.972,68.129-51.168,75.282c-0.323,1.78,2.14-1.905-35.016,51.474
			c-78.074,112.161-47.976,66.235-111.679,119.059c-8.481,7.033-1.025,5.55-29.102-77.193
			c-33.722-99.376-42.167-93.601-33.936-96.644c39.105-14.456,41.896-28.942,60.188-30.386c10.756-0.849,21.181,1.539,30.65,0.659
			c18.163-1.689,14.093-22.064,10.452-22.984c-3.292-0.832-5.743,2.681-7.954,4.978c-8.036,8.344-17.702,10.709-23.74,9.739
			c0.598-1.943,2.032-2.073,3.109-2.592c15.807-7.617,28.509-19.237,28.509-19.237c8.805-1.608,5.959-14.272,21.249-13.942
			c37.537,0.811,23.959-13.05,34.522-18.858c35.488-19.512,28.015-40.662-5.094-63.096c-7.167-4.856,1.205-7.513-7.04-16.757
			c-8.823-9.891-24.774-15.694-37.578-19.39c-3.95-1.14-6.812-4.001-10.565-5.279c-1.161-0.396-0.943-1.392-0.767-2.293
			c2.585-13.205,1.531-14.928,7.241-17.407c53.312-23.144,55.722-58.081,36.66-55.474c-11.888,1.625-38.489,27.226-41.717,28.608
			c-2.97-4.742-0.084-9.818-1.289-14.751c-29.3,6.349-58.587,3.45-87.975,1.551c1.333,8.252,3.137,15.893,3.506,23.697
			c0.374,7.891,2.786,15.428,3.858,23.717c-3.369-2.828-5.711,0.737-8.698,0.443c-21.765-2.144-99.473-5.533-98.47-5.412
			c-5.888-0.708-5.435,2.133-4.459-27.441c0,0,5.823-482.792,5.97-487.262c0.973-29.467-3.224-31.675,8.252-31.813
			c3.181-0.038,5.273,0.672,19.879,9.92c24.912,15.772,27.379-24.357,47.433-2.432c18.175,19.875,33.35-10.041,41.45-9.568
			c2.703,0.158,3.811,4.072,5.698,6.264c13.602,15.8,25.819,11.936,43.31,3.189c10.169-5.086,16.35,0.857,26.465,7.02
			c15.94,9.712,25.172-19.215,47.124-15.849c16.569,2.541,27.641,8.957,41.28,7.912c22.837-1.749,50.839-15.571,62.476-39.821
			c15.752-32.823,14.921-31.931,17.709-28.825c22.44,25.007,12.345,38.03,38.032,27.277c17.514-7.331,19.457,2.195,35.271-5.442
			c27.859-13.454,72.524-36.586,72.524-36.586c16.187-6.863,16.026-13.175,13.3-20.455c-3.579-9.557-20.24-47.263-30.148-48.399
			c-4.705-0.539-322.387-99.064-478.882-222.734c-6.608-5.222,4.247-3.77,0.693-12.423c-1.845-4.494-5.204-4.176-19.818-3.916
			c-6.796,0.121-9.712,4.505-6.604,10.563c1.232,2.401,0.595,3.226-1.198,4.27c-2.797,1.629-16.486,11.523-53.289,31.715
			C797.451,155.5,518.156,228.497,518.156,228.497c-4.929,12.185-25.605,44.047-7.773,47.797
			c12.423,2.613,16.08,11.313,19.001,14.488c16.775,18.232,38.152-20.044,46.458-18.165c-1.738,18.54-2.954,26.792,11.547,32.351
			c40.414,15.493,29.169,1.229,36.088,19.843c4.203,11.307,11.356,15.302,23.156,13.089c5.97-1.119,11.873-2.689,17.181-5.534
			c7.404-3.969,14.454,2.594,17.69,8.301c6.067,10.699,11.53,21.194,26.387,14.928c15.024-6.337,16.383-13.36,20.84-4.329
			c13.075,26.497,36.4,30.364,55.235,19.277c5.331-3.138,9.066-7.97,12.573-1.555c2.133,3.903,7.972,19.385,26.412,18.457
			c12.186-0.614,21.907-6.951,28.056-10.233c9.117-4.867-1.648,10.389,11.226,19.274c13.321,9.193,33.06,8.561,46.403-9.242
			c6.996-9.334,11.358-20.009,15.678-30.707c0.717-1.776,1.004-3.807,2.691-5.084c6.481,4.131,13.831,41.497,39.314,42.865
			c16.044,0.861,27.409,9.597,32.041,11.895c16.195,8.031,21.466-0.233,20.324,7.495c-0.693,4.693-4.724,461.793-4.75,469.229
			c-0.252,71.851,0.732,65.278-5.628,65.246c-40.62-0.202-88.366,2.453-114.995,4.936c-40.718,3.797-41.069,6.834-39.752,0.618
			c1.693-7.993,2.668-16.196,6.978-24.155c-118.035,13.011-112.636-12.184-104.144,18.083c0.42,1.497,1.529,2.986,0.603,4.624
			c-1,0.251-64.234-40.728-56.63-13.783c7.674,27.189,75.933,34.182,60.084,39.528c-9.394,3.169-18.063,7.989-27.121,11.923
			c-10.725,4.658-26.726,13.673-27.3,25.382c-1.98,40.359,35.183,39.206,29.462,70.575c-4.089-2.312-4.954-7.044-8.295-9.396
			c-2.755,2.545,4.278,13.142,6.726,16.139c5.294,6.479,2.771,14.235,18.827,18.831c18.784,5.376,31.099-0.249,41.295,2.861
			c13.835,4.221,29.01,15.753,47.403,13.655c0.652-0.074,1.419-0.333,1.941,0.466c-0.318,1.489-1.756,1.661-2.791,2.29
			c-16.988,10.313-13.888,20.992,0.147,28.065c18.908,9.527,20.245,5.53,17.218,12.298
			c-74.77,167.204-68.003,275.299-104.592,259.108c-0.519,4.862-0.534,4.745-5.757,5.401c-27.553,3.459-64.091-39.952-73.132-48.651
			c-37.507-36.09-30.121-3.279-167.164-306.361c-42.778-94.606-31.293-90.87-46.127-113.138
			c-17.811-26.735-85.15,7.33-111.377,22.607c-1.313,0.765-2.765,2.442-4.33,0.609c-1.957-2.293-3.489-0.982-5.137,0.274
			c-52.615,40.113-74.418,70.602-97.05,94.281c-4.464,4.67-2.005,3.018-50.314-1.115c-27.236-2.33-19.986,4.193-9.41-38.562
			c40.55-163.937,27.54-137.426,86.283-181.99c22.385-16.982,33.448-39.254,13.995-57.581
			c-12.474-11.752-31.65-17.024-43.216-34.086c-29.983-44.23-50.685-56.753-6.813-128.047c3.838-6.237,4.033,2.175,22.399,5.962
			c57.886,11.938,38.247-19.128,51.584-19.657c6.806-0.27,8.2-11.455,1.343-14.248c2.211-2.313,8.542-1.072,9.361-7.141
			c0.299-2.215,2.367-4.332-0.797-6.746c-2.472-1.885-1.092-5.57,1.875-6.954c6.937-3.235,10.631-4.069,10.214-9.07
			c-0.543-6.515,2.629-0.514,9.516-17.98c7.028,10.305,1.279,11.524,1.371,17.611c16.428-17.355,16.619-25.63,9.916-42.891
			c5.626,3.494,6.82,10.667,10.112,11.407c-1.849-5.652-4.616-10.979-5.825-16.864c-2.609-12.705-7.817-15.575-9.935-22.391
			c-0.834-2.685,1.262-5.678,10.09,1.38c2.885,2.307,5.654,4.76,8.472,7.15c-1.623-2.825-14.805-22.822-17.79-26.167
			c-6.621-7.421-2.701-10.557-9.352-22.424c-9.924-17.707,3.067-11.979,14.018,0.899c-0.071-1.234-0.319-2.44-1.082-3.429
			c-11.727-15.178-3.552-13.339-35.901-46.851c-9.449-9.788-20.979-14.618-34.484-14.045c-44.409,1.885-53.168-6.895-72.037,5.856
			c-15.3,10.338-19.501,16.413-34.801,18.799c-14.656,2.286-23.646,3.825-29.594,8.934c-4.292,3.686-4.292,3.931,0.038,7.85
			c0.785,0.711,1.925,1.129,2.005,2.524c-0.508,1-26.576,21.61-23.238,54.878c2.718,27.095,11.035,52.167,27.266,74.331
			c17.153,23.422,31.546,26.021,50.998,34.146c3.688,1.541,3.793,1.881,2.304,5.19c-27.664,61.479-79.742,55.847-90.122,92.008
			c-4.538,15.81-4.374,37.064-4.128,53.385c0.016,1.074,0.615,2.664-1.576,2.97c-1.722-7.31-0.368-18.503-19.009-49.763
			c-25.223-42.297-33.4-46.118-41.276-45.443c-8.738,0.749-5.558,15.085-2.282,19.986c43.246,64.688,41.91,43.717,45.332,133.327
			c2.815,73.7,1.852,101.612-0.938,124.339c-7.279,59.295-25.448,117.748-28.014,176.494
			c-5.395,123.524-58.07,450.037-33.613,450.216c45.458,0.335,25.981,9.404,27.756-90.288c0.575-32.295,0.452-61.849,7.222-92.19
			c6.533-29.277,21.091-80.812,45.755-97.571c4.924-3.346,5.027-1.589,33.933-3.965c89.279-7.339,83.674-11.525,102.4-4.04
			c46.251,18.488,42.683,67.335,40.128,282.391c-0.063,5.317,1.526,8.89,5.397,12.244c6.286,5.446,6.17,5.64,11.458-0.874
			c4.308-5.306,2.857,0.372,3.593-32.954c1.481-67.024,7.33-164.166-5.092-228.202c-9.035-46.58-20.248-45.352-11.682-49.299
			c2.559-1.179,15.904-4.541,26.871-12.229c14.962-10.49,5.544-19.257,15.048-20.921c9.506-1.664,18.256-5.074,24.987-12.431
			c0.054-0.058,0.312,0.071,0.913,0.223c-1.232,7.495-17.234,18.345-22.977,32.103c-3.621,8.675,16.245-6.854,27.881-21.407
			c11.174-13.975,5.607-25.257,9.116-41.486c0.978-4.522,1.346-5.752-14.847-48.417c-2.065-5.441-2.33-3.103,27.822-45.537
			c0.411-0.579,0.891-1.176,1.772-0.888c0,0,28.157,171.179,29.979,178.939c10.46,44.561,33.202,119.375-0.602,147.829
			c-8.727,7.346-15.891,18.493-10.417,28.972c6.256,11.975,8.404,19.309,10.919,70.406c0.496,10.074,0.434,12,2.782,11.894
			c1.323-0.06,1.696-1.096,1.527-4.691c-1.01-21.479-2.5-33.391,1.968-47.886c1.608-5.216,7.516-13.144,12.661-8.216
			c11.521,11.032,8.098,58.309,20.847,62.446c41.994,13.626,62.865,9.133,82.191,7.522c0.966-0.081,2.306,0.022,2.547-1.737
			c-9.403-12.83-12.074-7.221-16.306-10.129c-10.936-7.518-20.228-6.153-29.09-18.741c-15.808-22.454-14.297-37.3-31.509-95.43
			c-2.031-6.858-13.546-148.867-13.626-149.878c-7.509-94.846-6.2-78.76,3.209-163.707c0.103-0.929,0.28-1.807,1.487-2.249
			c0.705,0.206,62.628,77.961,63.101,78.536c31.334,38.036,42.454,64.707,63.385,109.865c31.088,67.069,31.098,78.865,27.905,89.245
			c-13.078,42.511,2.354,40.743,10.34,47.144c16.097,12.903,51.095,61.428,50.207,60.428c1.874,2.113,5.85,0.741,3.334-2.729
			c-12.109-16.698-19.573-25.852-25.065-37.312c-9.553-19.935-3.483-30.472,7.902-24.564c9.009,4.676,10.645,7.665,38.731,37.016
			c5.76,6.019,5.597,14.297,60.638-13.239c1.567-0.784,2.91-2.316,4.978-1.855c0.852,1.422,0.562,0.105,5.893,27.344
			c0.501,2.56-0.492,7.011,15.111,2.539c4.503-1.291,3.394-3.575,3.449-14.138c0.118-22.683,8.937-30.617,11.258-35.207
			c-0.88-1.589-6.703-3.083-4.721-4.539c2.861-2.101,1.702-5.297,2.536-7.921c19.832-62.375,20.045-127.277,96.864-244.98
			c1.449-2.221,2.813-3.241,5.742-2.839c12.583,1.727,12.6,1.605,17.598,13.153c29.164,67.469,42.369,125.665,62.525,204.497
			c1.702,6.66-7.215-0.397-8.885-0.711c-0.833,1.293-0.341,2.361-0.032,3.379c17.332,57.136,5.455,59.263,24.715,55.495
			c10.049-1.966,8.133-2.704,8.071-9.855c-0.236-27.034,7.063-36.036,13.043-44.329c-13.25-8.036-11.876,3.438,2.321-55.319
			c13.451-55.676,28.478-109.082,50.577-161.686c2.34-5.57,5.346-3.052,17.616-5.972c3.683-0.876,5.612,0.547,7.577,3.504
			c42.292,63.618,77.491,146.229,82.482,167.405c1,4.241,1.174,4.22-2.445,6.702c-57.911,39.717-63.284,2.315-98.008,13.367
			c0.621,2.787,24.98,24.895,27.056,26.706c15.98,13.948,38.291,23.613,57.404,31.639c7.172,3.011,8.025-0.557,28.26-17.516
			c4.379-3.67,2.767-2.185,11.689,29.91c1.002,3.606-0.263,4.056-7.611,12.753c3.011,1.883,3.698,4.655,4.473,7.498
			c11.442,41.959,3.934,41.66,17.703,41.085c2.552-0.106,5.497-0.011,5.404-3.729c-0.298-12.013,0.774-24.83,7.082-35.002
			c0.883-1.423,3.216-2.663,1.883-4.618c-2.824-4.142-12.183,4.842-14.591-5.551c-3.213-13.863-3.403-12.797-2.091-13.642
			c1.395,1.536,1.773,4.561,5.212,3.245c6.166-2.359,6.995-1.343,4.087-8.052c-3.051-7.047-2.699-4.34,12.619-21.1
			c9.594-10.498,20.233-19.574,33.475-25.249c2.101-0.901,5.367-1.382,3.328-5.218c-0.206-0.388,0.825-1.503,1.373-2.211
			c9.948-12.85,0.538-35.818,2.328-46.552c3.508-21.04,13.094-27.625,27.275-49.411c32.601-50.085,41.887-56.349,87.988-100.328
			c4.904-4.677,1.392-3.543,20.975,30.326c4.667,8.071,9.915,15.94,12.382,25.01c1.164,4.278,3.448,5.957,7.385,6.708
			c3.98,0.76,4.683,0.421,4.361-3.553c-0.449-5.53-2.203-10.737-4.466-15.768c-4.417-9.818-19.008-34.35-16.723-37.054
			c2.36-0.114,4.067,1.375,5.908,2.489c29.297,17.733,21.901,10.645,29.431,14.3c3.505,1.701,3.604,2.56,3.653,22.175
			c0.098,38.453-1.658,226.371-14.234,256.085c-22.492,53.147-25.488,76.588-43.919,99.556
			c-12.348,15.388-22.838,12.188-36.145,19.21c-6.333,3.341-7.051-4.067-19.631,9.888c1.454,1.48,3.163,1.534,4.732,1.839
			c33.544,6.528,35.855,7.81,67.868,5.09c23.24-1.975,27.895-4.126,30.203-12.673c11.796-43.679,15.27-49.585,18.893-54.171
			c7.54-9.545,14.466,1.995,15.633,9.632c2.821,18.45-2.559,40.673-4.117,52.826c-0.187,1.459-1.366,3.666,1.129,4.081
			c3.686,0.613,2.303-0.684,9.105-39.901c10.081-58.112,22.692-46.723,18.53-63.198c-3.862-15.288-18.868-22.926-22.976-39.422
			c-4.632-18.6,0.161-24.703,0.26-61.095c0.049-18.003,2.87-41.831,9.416-67.171c22.232-86.06,19.777-83.846,22.17-84.616
			c2.191-0.705,1.943-1.385,4.223-11.906c18.372-84.763,6.157-155.839,23.746-144.823c14.898,9.331,29.152,19.613,43.694,29.469
			c3.112,2.109,4.251,4.427,4.018,8.139c-1.899,30.239,9.146,32.801,5.369,49.385c-3.041,13.35,2.645,26.599,14.602,32.608
			c6.619,3.326,10.538,8,13.29,14.354c2.607,6.018,5.353,7.096,3.366,13.119c-25.077,76.024-19.306,277.6-18.942,278.6
			c3.197,8.787,19.26,6.937,19.511-5.811c2.982-151.07-1.28-198.274,13.3-250.845c11.31-40.785,107.741-37.944,150.922-26.582
			c14.958,3.936,25.389,12.855,32.543,26.406c41.266,78.171,32.376,166.65,26.571,249.968c-0.738,10.595,12.132,20.516,17.934,8.539
			c8.651-17.857,15.448-200.318-29.928-277.839c-4.759-8.13-0.815-4.581,0.045-12.953c2.477-24.117,4.992-58.539,13.94-108.181
			c27.955-155.105,6.792-127.228,64.892-345.23c18.554-69.62,52.078-90.331,54.24-93.302
			C1969.066,682.834,1955.335,641.521,1900.797,743.003z M1268.428,1076.401c-2.966,4.221-7.255,6.178-13.608,6.129
			C1259.074,1080.039,1263.425,1077.98,1268.428,1076.401z M1256.474,906.959c1.659,1.423-0.282,8.778-5.618,10.38
			c-5.097,1.53-10.101,3.995-16.604,3.533C1238.066,917.955,1253.998,904.836,1256.474,906.959z M725.511,951
			c-5.782-1.106-11.164-6.748-9.968-9.199c2.156-4.418,12.633,0.901,30.739,11.381c0.227,0.131,0.264,0.592,0.396,0.916
			C745.988,955.205,747.09,955.127,725.511,951z M810.144,1112.536c11.069-0.38,20.66,3.904,31.485,7.024
			C833.85,1122.621,815.263,1118.237,810.144,1112.536z M59.361,1333.442c-1.516-0.767-0.955,0.822,3.183-27.832
			c0.498-3.447,3.358-3.584,11.103-3.76C68.776,1312.62,64.07,1323.027,59.361,1333.442z M91.159,1092.663
			c0.145,1.283,0.156,2.551-0.309,3.79c-9.248,24.604-7.755,21.318-9.107,22.355c-3.572-5.052,9.899-61.918,27.707-176.632
			C119.453,982.868,87.549,1060.793,91.159,1092.663z M317.688,1226.34c-1.998,1.136-3.368,0.863-4.196-1.51
			c-1.635-4.688-3.859-3.74-3.123-10.028c1.479-12.632,5.045-14.197,18.626-32.627c4.564-6.194,10.324,14.61,10.315,20.253
			C338.629,1214.025,327.69,1220.651,317.688,1226.34z M325.204,1238.207c-2.313,1.056-2.742-0.779-3.959-2.579
			c-5.546-8.206,2.531-1.386,16.743-15.019c13.668-13.112,11.006-13.312,13.696-12.848
			C353.184,1222.744,338.846,1231.979,325.204,1238.207z M859.057,1158.913c-20.099-8.624-19.565-17.595-12.885-23.502
			c12.191-10.781,17.446-7.808,22.113-5.625c8.9,4.163,9.048,2.142-3.648,27.193C862.994,1160.22,862.457,1160.372,859.057,1158.913
			z M877.596,1175.075c-30.992,49.086-25.604,48.206-29.758,47.652c0.081,0.309,0.162,0.617,0.244,0.926
			c-0.097-0.296-0.194-0.592-0.291-0.888c24.675-58.719,21.468-53.555,27.363-52.365c1.236,0.25,2.531,0.375,3.574,1.283
			C879.417,1173.151,878.229,1174.073,877.596,1175.075z M884.841,1164.114c-1.885,2.707-3.132,1.702-4.694,1.402
			c-7.97-1.533-8.323,0.156,3.002-21.985c3.56-6.96,6.8-0.275,9.886,4.818C894.781,1151.229,893.332,1151.922,884.841,1164.114z
			 M894.788,1168.423c1.027-3.744,1.027-3.744,4.278-6.882c1.764,2.283,3.09,4.717,4.174,7.683
			C900.053,1170.299,897.514,1168.671,894.788,1168.423z M1052.497,1183.82c-27.989,67.078-45.04,145.373-59.978,204.526
			c-0.82,3.249-1.545,7.287-5.266,7.521c-8.583,0.541-4.379-18.877-38.07-129.558c-26.334-86.513-38.583-89.448-28.733-89.145
			c51.268,6.752,136.211-0.415,132.588-0.599C1056.16,1176.724,1054.268,1179.576,1052.497,1183.82z M1054.087,1171.805
			c-47.163,4.807-87.601,5.609-136.079,0.313c-5.596-0.611-5.47-2.256-10.841-13.492c-2.989-6.252-2.831-6.658,1.344-11.5
			c3.078-3.57,5.872-0.487,8.394,0.403c45.01,15.885,91.852,26.647,139.112,18.587c1.037-0.177,2.109-0.8,3.114,0.115
			C1058.16,1171.172,1058.08,1171.398,1054.087,1171.805z M1070.207,1169.674c-4.586,0.944-0.012-6.945,2.413-7.639
			c5.26-1.506,5.718-2.497,9.565,5.092C1078.146,1168.84,1074.092,1168.875,1070.207,1169.674z M1120.218,1157.259
			c-0.394,0.313-0.788,0.626-1.12,0.89C1117.929,1157.935,1118.401,1156.621,1120.218,1157.259z M1087.987,1157.534
			c5.96,0,10.448-0.002,14.937,0.001c2.854,0.002,5.188,3.978,2.31,4.869C1091.795,1166.564,1094.424,1166.67,1087.987,1157.534z
			 M1097,1170.469c11.564-4.785,12.295-4.568,16.826,5.698c9.776,22.148,23.39,56.621,26.34,66.172
			C1126.401,1217.991,1112.703,1193.702,1097,1170.469z M1199.115,1451.6c-0.383,0-0.93,0.12-1.401-0.018
			c-4.369-1.279-7.483-2.301-0.425-8.045C1198.344,1444.877,1200.481,1450.198,1199.115,1451.6z M1212.65,1417.347
			c-11.357-28.84-12.023-28.13-9.074-30.255c8.651-6.23,19.031-11.782,21.504-1.568
			C1227.633,1396.073,1218.9,1408.835,1212.65,1417.347z M1598.691,1167.47c-1.254,1.282-2.425,1.034-2.883-0.531
			c-2.229-7.623-3.946-15.333-3.424-24.527c7.752,5.008,14.622,9.446,21.814,14.092
			C1610.441,1160.19,1607.133,1158.843,1598.691,1167.47z M1685.245,1056.867c17.146-17.443,30.974-37.173,42.265-58.782
			C1724.598,1063.921,1690.711,1061.514,1685.245,1056.867z M1858.426,900.866c-13.29,57.401-10.792,75.548-36.607,236.587
			c-1.668-1.028-1.875-2.249-2.02-3.379c-1.318-10.252-5.262-8.663-8.432-33.845c-4.718-37.476-26.962-70.977,44.164-198.644
			c0.665-1.193,0.907-2.843,2.607-3.226C1859.094,899.149,1858.618,900.037,1858.426,900.866z"/>
		<path d="M350.636,476.009c-0.077-0.091-0.162-0.174-0.239-0.264c0.003,0.058,0.012,0.116,0.015,0.174L350.636,476.009z"/>
		<path d="M360.91,554.216c-0.071-0.012-0.124-0.04-0.191-0.055c0.02,0.062,0.044,0.123,0.064,0.185L360.91,554.216z"/>
	</g>
	<path d="M360.782,554.346c0.568,0.641,1.608,1.769,0.791,2.037c-0.819,0.268-0.766-1.303-0.67-2.159
		C360.91,554.216,360.782,554.346,360.782,554.346z"/>
	<path d="M1673.719,472.465c-0.224-1.171-0.091-0.911,0.271-0.983c-0.143,0.289-0.286,0.577-0.42,0.874
		C1673.58,472.363,1673.719,472.465,1673.719,472.465z"/>
	<path d="M350.412,475.919c0.686-0.256,0.272,0.579,0.321-0.14c0.016-0.233-0.291-0.179-0.106,0.224
		C350.636,476.009,350.412,475.919,350.412,475.919z"/>
</g>
</svg>
