<?xml version="1.0" encoding="UTF-8" standalone="no"?>
<!-- Created with Inkscape (http://www.inkscape.org/) -->

<svg
   xmlns:dc="http://purl.org/dc/elements/1.1/"
   xmlns:cc="http://creativecommons.org/ns#"
   xmlns:rdf="http://www.w3.org/1999/02/22-rdf-syntax-ns#"
   xmlns:svg="http://www.w3.org/2000/svg"
   xmlns="http://www.w3.org/2000/svg"
   xmlns:sodipodi="http://sodipodi.sourceforge.net/DTD/sodipodi-0.dtd"
   xmlns:inkscape="http://www.inkscape.org/namespaces/inkscape"
   width="210mm"
   height="297mm"
   viewBox="0 0 210 297"
   version="1.1"
   id="svg880"
   inkscape:version="0.92.3 (2405546, 2018-03-11)"
   sodipodi:docname="Women-face-2.svg">
  <defs
     id="defs874" />
  <sodipodi:namedview
     id="base"
     pagecolor="#ffffff"
     bordercolor="#666666"
     borderopacity="1.0"
     inkscape:pageopacity="0.0"
     inkscape:pageshadow="2"
     inkscape:zoom="0.49497475"
     inkscape:cx="217.33248"
     inkscape:cy="647.42175"
     inkscape:document-units="mm"
     inkscape:current-layer="layer1"
     showgrid="false"
     inkscape:window-width="1600"
     inkscape:window-height="838"
     inkscape:window-x="-8"
     inkscape:window-y="-8"
     inkscape:window-maximized="1" />
  <metadata
     id="metadata877">
    <rdf:RDF>
      <cc:Work
         rdf:about="">
        <dc:format>image/svg+xml</dc:format>
        <dc:type
           rdf:resource="http://purl.org/dc/dcmitype/StillImage" />
        <dc:title></dc:title>
      </cc:Work>
    </rdf:RDF>
  </metadata>
  <g
     inkscape:label="Layer 1"
     inkscape:groupmode="layer"
     id="layer1">
    <path
       style="fill:#050809;stroke-width:0.1386849"
       d="m 36.92781,196.51434 c 0,-3.1261 0.01805,-4.40496 0.0401,-2.84191 0.02206,1.56305 0.02206,4.12076 0,5.68381 -0.02206,1.56305 -0.0401,0.28419 -0.0401,-2.8419 z M 60.372,190.12138 c -8.145234,-1.46192 -15.866591,-4.83653 -21.897177,-9.57016 -1.469047,-1.15311 -1.683674,-1.3758 -1.103436,-1.14491 2.164093,0.86114 6.146945,1.81823 9.281569,2.23038 3.179611,0.41807 3.250046,0.40327 1.714432,-0.36015 -1.584755,-0.78786 -3.555737,-2.11956 -4.923787,-3.32677 -5.21675,-4.60345 -7.715961,-12.47858 -5.946106,-18.73647 1.207812,-4.27061 4.490063,-7.64928 8.824117,-9.08333 1.503502,-0.49748 4.374665,-0.65269 5.688289,-0.3075 2.196001,0.57705 3.610022,1.4615 4.650459,2.9088 0.883657,1.2292 1.195878,2.17664 1.276964,3.87495 0.06414,1.34337 -0.175309,3.15092 -0.483685,3.65127 -0.05481,0.0889 -0.1005,-0.57419 -0.101541,-1.47359 -0.0016,-1.42421 -0.0519,-1.78518 -0.389362,-2.79684 -0.484087,-1.45123 -1.287111,-2.36803 -2.613625,-2.98395 -2.999985,-1.39295 -6.366045,-0.57859 -9.021275,2.18253 -1.603392,1.66733 -2.303314,3.24897 -2.402033,5.42793 -0.146347,3.23025 0.843387,4.70386 3.443585,7.16909 1.206863,1.14422 4.279681,3.57577 6.090917,4.03538 0,0 4.278421,0.27832 5.705758,0.0425 4.817062,-0.79575 19.010187,-2.59808 13.504724,-10.64205 -4.565265,-6.67026 8.061627,-16.14266 10.008056,-25.81946 0.409028,-2.03352 -0.435443,-7.15471 -0.450831,-7.44141 -0.0041,-0.0772 1.216135,2.23818 0.995995,2.91538 0.321097,2.35247 -0.720659,5.60624 -1.716925,7.12884 -2.054703,3.14023 -4.713287,6.98998 -7.712053,8.01456 -0.77486,0.26474 -1.842039,-0.0111 -3.193001,-0.01 -1.57691,10e-4 -3.288414,-0.68587 -4.139009,-1.11526 -2.516385,-1.27017 -3.07835,-6.44806 -2.075724,-8.44287 0.379183,-0.75441 0.832959,-1.03252 1.746058,-1.07011 l 0.854673,-0.0352 -0.803139,0.11471 c -0.63269,0.0904 -0.894461,0.20823 -1.233434,0.55534 -0.416647,0.42666 -0.430294,0.4795 -0.430294,1.66592 0,1.03575 0.05682,1.34943 0.367298,2.02777 0.821081,1.79392 2.582392,3.0705 4.37991,3.17451 4.310753,0.24943 8.968029,-3.71291 11.423067,-9.71857 0.695365,-1.70105 1.169228,-3.30622 1.536578,-5.20503 0.350806,-1.8133 0.349952,-7.73495 -0.0015,-10.03439 -0.560054,-3.66481 -1.147633,-6.02796 -1.956067,-7.86696 -2.044693,-4.65123 -2.949418,-7.81935 -3.504529,-12.271999 -0.287711,-2.307775 -0.222078,-7.62474 0.122153,-9.895812 0.76291,-5.033315 1.836944,-8.444572 4.009226,-12.733758 3.981875,-7.862243 10.339765,-14.216744 19.119296,-19.109105 0.979894,-0.546042 1.733329,-0.993345 1.674309,-0.994006 -0.29568,-0.0033 -3.648195,1.391416 -5.031989,2.093429 -3.473481,1.76213 -6.166401,3.780091 -8.839608,6.624026 -2.409546,2.563436 -4.284044,5.198996 -5.876649,8.262624 -1.099261,2.114602 -0.948054,1.560302 0.248841,-0.912217 2.126979,-4.393863 5.060598,-8.351347 8.311588,-11.212422 6.049748,-5.324156 13.847937,-8.362937 23.602667,-9.197436 3.59337,-0.307405 6.42184,-0.08603 8.08664,0.632912 0.8895,0.384129 1.22126,0.464744 3.45221,0.838855 4.34314,0.728309 9.53292,3.06674 13.25684,5.97333 0.58276,0.454852 1.135,0.81082 1.22721,0.791041 0.0922,-0.01978 0.17045,0.03073 0.17387,0.112252 0.003,0.08152 0.75585,0.888302 1.67206,1.792854 1.38693,1.369302 2.93805,3.220978 4.19694,5.010182 0.21763,0.309312 0.22804,0.312406 0.097,0.02884 -0.39418,-0.852875 -2.42615,-3.382027 -4.02938,-5.015312 -0.98498,-1.003439 -1.45396,-1.540244 -1.04218,-1.1929 4.50173,3.797313 8.27159,10.061635 10.20469,16.956979 1.84268,6.572797 2.22439,14.347788 1.01403,20.654451 -0.86578,4.511162 -2.774,9.702262 -4.98527,13.561802 -0.84308,1.47151 -2.36059,3.8405 -2.46012,3.8405 -0.0328,0 0.27988,-0.55259 0.69476,-1.22798 2.32665,-3.78755 4.45312,-9.27242 5.39015,-13.902955 1.47088,-7.268716 1.5854,-14.003653 0.34647,-20.375376 -0.35493,-1.825357 -1.22886,-5.107879 -1.4572,-5.473305 -0.10008,-0.160164 -0.11008,-0.143381 -0.0418,0.07017 0.28512,0.891747 1.03271,4.123474 1.21743,5.262793 0.56601,3.490999 0.72717,7.29666 0.51409,12.13951 -0.16568,3.765422 -0.41005,5.965506 -0.92752,8.350299 -1.05303,4.853014 -3.47308,9.903344 -6.7586,14.104284 l -0.98783,1.26307 0.0783,2.3858 c 0.19717,6.0111 1.10926,10.77937 2.8073,14.67619 0.85526,1.96274 1.9848,3.68677 3.43556,5.24376 1.60016,1.71734 0.62475,1.01401 -1.2399,-0.89403 -4.3478,-4.44897 -6.75949,-11.32133 -7.85867,-22.39411 -0.2532,-2.5507 -0.49073,-6.63704 -0.49073,-8.44231 v -1.32395 l -0.7294,0.76504 c -0.81214,0.85184 -1.5395,1.16755 -2.33693,1.01435 -1.03159,-0.19817 -1.84752,-1.34267 -1.94774,-2.73205 l -0.26951,-1.56863 0.41538,1.58775 c 0.27874,1.11102 0.55664,1.61251 1.07178,1.93416 0.52938,0.33054 1.06683,0.34925 1.66616,0.058 0.97201,-0.47233 1.77263,-1.73576 2.82617,-4.45985 0.39331,-1.016965 0.88691,-2.164797 1.09689,-2.550735 0.48994,-0.900526 1.13195,-3.129148 1.4336,-4.976495 0.3366,-2.061376 0.22775,-3.41754 -0.37137,-4.627112 -0.59377,-1.198758 -1.04072,-1.46087 -2.32272,-1.362143 -1.73439,0.133565 -2.34553,0.606618 -3.98037,3.08097 -0.62132,0.940372 -1.38297,1.962383 -1.69256,2.271134 -0.32786,0.326971 -0.3844,0.414868 -0.1354,0.210511 0.23512,-0.192969 0.10012,-0.02219 -0.29999,0.379511 -0.89054,0.894062 -1.38921,1.031825 -2.27788,0.62928 -0.8314,-0.376604 -1.63974,-1.457461 -2.62574,-3.510932 -0.86179,-1.794786 -1.66426,-2.781827 -3.15698,-3.883077 -0.62046,-0.457745 -1.03606,-0.646522 -1.69116,-0.768168 -3.71209,-0.689303 -6.48052,-2.570008 -7.44298,-5.056294 -0.36614,-0.945846 -0.39571,-2.569762 -0.0636,-3.491089 0.12176,-0.337752 0.22139,-0.725745 0.22139,-0.862206 0,-0.13646 0.36809,-0.633331 0.81798,-1.104156 0.44989,-0.470825 1.28922,-1.535363 1.86517,-2.365641 1.924,-2.773595 9.43902,-14.350811 9.31541,-14.350811 -0.0294,0 -0.37687,0.457863 -0.77225,1.017473 -1.42743,2.020329 -7.61742,10.325292 -9.16425,12.295441 -0.87032,1.108497 -1.84728,2.418785 -2.17104,2.91175 -0.94963,1.445962 -1.70297,1.681124 -5.7841,1.805555 -6.27625,0.191358 -7.93295,1.806705 -9.67839,2.670272 -1.903372,0.941702 -4.421315,5.260589 -5.219016,7.521378 -0.20516,0.581446 0.0042,0.126947 0,0 -0.01398,-0.420803 0.938711,-5.544062 1.37523,-6.388908 0.851234,-1.64749 2.862509,-3.287624 4.751096,-3.874376 1.40597,-0.436811 3.8872,-1.813605 7.16687,-2.117043 1.65828,-0.153427 4.01969,0.53305 4.20813,0.486069 0.29785,-0.07425 0.25308,-0.109964 -0.34262,-0.273283 -1.54987,-0.424914 -3.98742,-0.757142 -5.55513,-0.757142 -1.38047,0 -1.88177,0.06884 -3.45332,0.47419 -3.628293,0.935861 -5.927975,2.110465 -7.746878,3.956862 -1.929696,1.958863 -2.607369,3.904679 -2.460722,7.065516 0.04148,0.893932 0.01368,3.036952 -0.06177,4.762267 -0.07545,1.725315 -0.09972,3.289755 -0.05394,3.476535 0.07299,0.297824 0.119324,0.319819 0.376614,0.178814 0.538557,-0.295153 1.950041,-0.06874 3.053731,0.489839 1.082879,0.548047 1.639596,1.140006 1.225261,1.302823 -0.124922,0.04909 -0.666698,-0.01601 -1.203949,-0.144668 -0.537249,-0.128656 -1.198884,-0.233111 -1.470298,-0.232121 -0.525273,0.0019 -1.358483,0.248975 -1.353948,0.401467 0.0015,0.05034 0.302498,0.483972 0.668889,0.96363 1.067426,1.397405 1.955449,2.018198 1.44717,1.011678 -0.290756,-0.575769 -0.237093,-0.8237 0.08319,-0.384355 0.268942,0.368922 0.284915,0.372292 0.77359,0.163203 0.857793,-0.36702 2.332529,0.0412 3.141487,0.869599 0.470823,0.482131 0.418583,0.677853 -0.155452,0.582462 -0.513913,-0.0854 -0.57317,0.02217 -0.392534,0.712564 0.05559,0.212453 0.134931,0.276671 0.237963,0.192601 0.08501,-0.06937 0.293332,-0.169683 0.462936,-0.222926 0.22746,-0.07141 0.30836,-0.03995 0.30836,0.119902 0,0.314761 -1.279842,1.301455 -2.052741,1.582555 l -0.66345,0.2413 -0.01404,1.40971 c -0.02226,2.23482 0.251581,4.90937 0.683247,6.67321 0.340395,1.39089 0.659022,2.15696 2.305664,5.54347 2.11173,4.34301 3.15274,6.05188 5.21508,8.56081 0.76137,0.92625 1.76849,2.25032 2.23803,2.94237 1.19569,1.76232 2.32194,2.94718 3.2405,3.40913 1.09555,0.55095 2.76134,0.54908 4.33855,-0.005 3.25488,-1.14322 6.71408,-3.66039 10.75532,-7.82637 4.36557,-4.50032 6.8277,-8.78243 7.40005,-12.87011 0.0892,-0.6368 0.19418,-1.15782 0.23337,-1.15782 0.0392,0 0.0378,0.77363 -0.003,1.71918 -0.15328,3.54105 -1.22606,6.0318 -4.21608,9.7888 -2.57754,3.2387 -5.55037,6.12349 -8.12008,7.87959 -0.6945,0.47461 -1.28359,0.88026 -1.3091,0.90143 -0.0255,0.0212 0.13792,0.43816 0.36319,0.92662 0.47044,1.02012 0.88336,2.63339 1.21514,4.7475 0.32956,2.1 0.32864,7.4673 -0.002,9.68354 -0.77707,5.21401 -1.8184,7.97171 -5.56443,14.73582 -2.41574,4.36205 -3.64188,6.96831 -4.06411,8.63862 -0.47439,1.87662 -0.60121,5.00742 -0.27927,6.89434 0.41508,2.43279 1.04742,3.61906 2.40976,4.52076 1.20902,0.8002 2.24057,1.06429 4.1176,1.05417 1.39892,-0.008 1.72238,-0.0591 2.87801,-0.45845 1.55338,-0.53684 2.96302,-1.46667 3.73016,-2.4605 2.07754,-2.69144 2.17195,-6.11667 0.20676,-7.50109 -1.52728,-1.07593 -3.40124,-1.19348 -6.06116,-0.3802 -0.15076,0.0461 0.0945,-0.10593 0.54506,-0.33784 2.24609,-1.15614 4.98679,-1.08783 6.57919,0.16399 1.36585,1.07374 1.98943,2.51091 1.98943,4.58504 0,4.43719 -3.0306,8.08437 -8.01731,9.64841 -1.12279,0.35215 -1.43015,0.38728 -3.4262,0.39168 -2.0558,0.005 -2.26126,-0.0197 -3.28916,-0.38821 -3.33556,-1.19573 -5.59828,8.96646 -6.66334,5.23569 -0.15425,-0.54031 -2.84778,-4.6815 -2.08051,3.75994 -0.0419,-0.13502 -8.545598,-4.67806 -9.479928,-3.73587 -7.578667,7.6424 -6.358179,-0.33336 -16.780836,1.97848 l -1.998396,0.44326 -7.19503,0.0357 c -7.101339,0.0353 -7.219975,0.0312 -9.110755,-0.30811 z m 29.782056,-7.87971 c 5.396809,-3.23376 9.691445,-7.14053 12.928194,-11.76062 5.06103,-7.22403 7.58729,-15.72186 7.32204,-24.62987 -0.0471,-1.58235 -0.14249,-3.16119 -0.21194,-3.50853 -0.094,-0.47023 -0.10498,-0.291 -0.0429,0.7017 0.36949,5.90978 -0.42466,11.70839 -2.31605,16.91111 -1.3679,3.76272 -3.1318,7.18244 -5.31676,10.30775 -1.60301,2.29291 -2.601579,3.47677 -4.683478,5.55256 -2.906888,2.89837 -5.56107,4.96335 -9.080359,7.0646 -1.047152,0.62522 -1.941392,1.17748 -1.987198,1.22724 -0.174859,0.18995 1.458331,-0.7094 3.388471,-1.86594 z m -23.00112,-2.79681 c 3.68091,-0.53208 6.184213,-1.26884 9.007481,-2.65106 3.220329,-1.57661 5.490947,-3.26465 8.075577,-6.00359 2.500458,-2.64974 4.336728,-5.3055 6.86877,-9.93413 1.130698,-2.06695 2.811413,-5.4687 2.738718,-5.54315 -0.02772,-0.0284 -0.292519,0.37303 -0.588433,0.89205 -1.128469,1.97926 -4.066521,6.35197 -5.456454,8.12086 -6.096817,7.75907 -13.26743,12.77124 -21.05372,14.71628 -1.019279,0.25462 -2.130757,0.52884 -2.469951,0.60937 -0.558655,0.13265 -0.519947,0.1396 0.411145,0.0739 0.565323,-0.0399 1.675414,-0.16613 2.466867,-0.28053 z m 25.422437,-10.59264 c 8.294067,-6.36195 11.744427,-10.73222 13.228857,-16.75586 0.69638,-2.8258 0.85278,-5.53012 0.48293,-8.3503 -0.72233,-5.50803 -2.34577,-9.45024 -7.58617,-18.42148 -2.398428,-4.10596 -3.533309,-6.18089 -4.547065,-8.31351 -3.281596,-6.90342 -3.992298,-11.79969 -2.678752,-18.454862 0.03809,-0.192969 -0.05636,0.02807 -0.209886,0.491194 -0.844703,2.548168 -1.088898,6.940358 -0.557886,10.034388 0.775019,4.5158 2.553057,8.99836 6.596568,16.63043 5.304221,10.01165 6.797741,13.92887 7.410851,19.43725 0.41125,3.69481 -0.33949,7.98624 -1.98353,11.33838 -2.11488,4.31216 -5.671962,8.28565 -12.245901,13.67948 -0.847986,0.69576 -1.541792,1.29334 -1.541792,1.32797 0,0.0849 1.470384,-0.98519 3.631776,-2.64308 z m 5.063377,-6.30188 c 2.79484,-3.97497 4.0563,-8.62451 3.8762,-14.28706 -0.0941,-2.95811 -0.37482,-4.94416 -1.12456,-7.95558 -0.582791,-2.34083 -2.212154,-7.5909 -2.613301,-8.42047 -0.261127,-0.54001 -0.226608,-0.41374 0.611823,2.23797 1.622308,5.13086 2.412488,9.41114 2.566318,13.90127 0.12971,3.78645 -0.3312,7.10492 -1.369073,9.85687 -1.095166,2.90389 -2.411693,5.12223 -4.255841,7.17108 -0.648389,0.72036 -1.175814,1.3519 -1.172057,1.40341 0.01461,0.20028 2.757169,-2.87875 3.480491,-3.90749 z M 85.791489,154.6225 c 0.177032,-0.19297 0.291039,-0.35085 0.253351,-0.35085 -0.03769,0 -0.213368,0.15788 -0.3904,0.35085 -0.177032,0.19297 -0.291039,0.35085 -0.253351,0.35085 0.03769,0 0.213368,-0.15788 0.3904,-0.35085 z m 1.368465,-1.57321 c 4.269349,-5.10626 5.918203,-8.37536 6.603509,-13.09244 0.366722,-2.5242 0.299092,-7.05103 -0.143622,-9.61337 -0.528022,-3.05609 -1.419386,-6.39792 -2.863631,-10.7361 -3.407299,-10.23474 -3.926295,-12.04056 -4.577947,-15.92872 -0.251565,-1.501 -0.305794,-2.35935 -0.305891,-4.84177 -1.09e-4,-2.739295 0.03362,-3.178985 0.36607,-4.771599 0.201404,-0.964846 0.552936,-2.317718 0.781183,-3.006381 0.499426,-1.506866 0.467187,-1.774588 -0.03975,-0.330086 -0.474701,1.352648 -0.854455,2.830912 -1.145534,4.459196 -0.288736,1.615185 -0.326424,6.33583 -0.06442,8.06962 0.634374,4.19798 1.389039,7.09523 3.655547,14.03411 2.051988,6.28213 2.664117,8.40341 3.276726,11.35521 0.682437,3.28826 0.822093,4.60527 0.81238,7.66102 -0.01306,4.10696 -0.60574,6.96705 -2.108465,10.17473 -0.98737,2.10763 -2.308744,4.04423 -4.620268,6.77146 -0.408888,0.48243 -0.691963,0.87286 -0.629057,0.86764 0.06291,-0.005 0.514334,-0.48785 1.003172,-1.07252 z m 22.846486,-12.07497 c -0.0345,-0.13508 -0.0627,-0.0246 -0.0627,0.2456 0,0.27016 0.0282,0.38068 0.0627,0.2456 0.0345,-0.13508 0.0345,-0.35612 0,-0.4912 z m -0.1379,-0.7631 c -0.0438,-0.11196 -0.0762,-0.0787 -0.0828,0.0848 -0.006,0.14794 0.0264,0.23083 0.072,0.1842 0.0455,-0.0466 0.0504,-0.16768 0.0108,-0.26899 z m -26.668681,-25.955 C 82.286805,105.7168 81.961994,101.10828 81.86087,95.258191 81.725438,87.423278 82.264856,82.12943 83.611863,78.073952 c 0.218899,-0.659048 0.396599,-1.230337 0.394887,-1.269532 -0.0017,-0.03919 -0.202145,0.307955 -0.445407,0.771443 -2.218859,4.227603 -3.288141,8.735326 -3.478695,14.664993 -0.134299,4.179094 0.211982,7.412337 1.548148,14.455134 0.951859,5.01716 1.498034,8.27756 1.710767,10.21244 0.09107,0.82833 0.188854,1.43471 0.217294,1.34751 0.02844,-0.0872 -0.133108,-1.88708 -0.358998,-3.99972 z m -4.40856,-7.6304 c -1.326188,-5.53651 -1.793514,-8.36459 -2.102882,-12.72586 l -0.182399,-2.571322 -0.0169,2.948025 c -0.02336,4.07417 0.359989,7.207707 1.304737,10.665067 0.328217,1.20113 1.557114,4.60757 1.633634,4.52834 0.01988,-0.0206 -0.266404,-1.30049 -0.636186,-2.84425 z m 65.914921,-7.017053 c 2.75446,-8.336998 3.28682,-14.817569 1.6584,-20.188313 -1.41437,-4.664763 -4.2565,-7.918715 -11.23579,-12.863831 -1.2222,-0.86598 -2.31529,-1.790518 -3.22063,-2.724002 -1.23302,-1.271364 -1.30187,-1.323498 -0.68644,-0.519798 0.82097,1.072104 1.83125,1.966337 4.53883,4.017477 4.805,3.640042 6.84649,5.729902 8.54412,8.746543 1.70258,3.025422 2.39985,6.122482 2.39111,10.620537 -0.009,4.441663 -0.8018,8.556599 -3.00271,15.57787 -0.0677,0.21596 -0.0573,0.23214 0.0453,0.0702 0.0733,-0.11578 0.50882,-1.34728 0.96785,-2.736653 z m -46.042685,0.639183 c 0.483429,-0.352509 0.555313,-0.879582 0.212535,-1.55837 -0.209942,-0.415739 -0.604061,-0.566528 -0.623707,-0.238628 -0.0058,0.09649 -0.0212,0.459617 -0.03426,0.806962 -0.01982,0.526887 -0.07183,0.638562 -0.313913,0.673939 -0.188167,0.0275 -0.413883,-0.108162 -0.642131,-0.385938 -0.193584,-0.235588 -0.386787,-0.428343 -0.429342,-0.428343 -0.20182,0 -0.04161,0.65305 0.259321,1.057078 0.185182,0.24862 0.30364,0.48588 0.26324,0.52725 -0.204952,0.20988 0.945185,-0.18921 1.308259,-0.45395 z m 0.513251,-2.316485 c -0.405467,-0.314674 -1.540518,-0.546473 -1.830409,-0.373803 -0.199023,0.118545 -0.11217,0.150071 0.436827,0.158562 0.376883,0.0058 0.870256,0.09735 1.096386,0.203381 0.53177,0.249343 0.607073,0.252349 0.297196,0.01186 z m 33.217894,-4.360972 c 0.22238,-0.117763 0.40433,-0.246293 0.40433,-0.28562 0,-0.03933 -0.11928,-0.0061 -0.26508,0.07377 -0.38981,0.213633 -1.07917,0.177011 -1.50387,-0.07989 -0.20473,-0.123844 -0.85366,-0.94572 -1.44206,-1.826389 -0.58841,-0.88067 -1.13347,-1.641499 -1.21126,-1.69073 -0.32278,-0.204284 1.11721,2.273836 1.7378,2.990618 0.9155,1.057409 1.4597,1.252696 2.28014,0.818238 z m 17.19075,-7.855501 c -0.27196,-6.702685 -2.11176,-12.618642 -5.58654,-17.963668 -1.13497,-1.745867 -2.26499,-3.102846 -4.09106,-4.912756 -2.22451,-2.204812 -4.12188,-3.62721 -6.62915,-4.969641 -1.29569,-0.693737 -1.13526,-0.557426 0.51639,0.438746 4.71912,2.846277 8.81572,7.418966 11.52814,12.867874 2.58805,5.199071 3.85688,10.395855 4.02962,16.504221 l 0.0873,3.087506 0.1125,-1.543753 c 0.0619,-0.849064 0.0766,-2.427902 0.0328,-3.508529 z M 87.705965,89.08318 c 0,-0.07719 -0.05978,-0.04561 -0.13285,0.07017 -0.07307,0.115782 -0.132851,0.273666 -0.132851,0.350853 0,0.07719 0.05978,0.04561 0.132851,-0.07017 0.07307,-0.115782 0.13285,-0.273666 0.13285,-0.350853 z m 54.975715,-2.98225 c -0.0723,-0.135078 -0.47957,-0.675425 -0.90499,-1.200773 -0.76162,-0.940506 -3.51409,-3.390969 -3.81911,-3.400058 -0.086,-0.0026 -0.80386,-0.32782 -1.59531,-0.722797 -0.79146,-0.394977 -2.61077,-1.176496 -4.04292,-1.73671 -1.43216,-0.560212 -3.06143,-1.230876 -3.6206,-1.490362 -2.17198,-1.007911 -4.14531,-2.655658 -5.0284,-4.198741 -0.49282,-0.86114 -0.56431,-0.775151 -0.0964,0.115927 0.54979,1.046948 2.09939,2.663927 3.40634,3.554435 1.38072,0.940777 2.6562,1.557962 6.20664,3.003316 2.76962,1.127491 4.51585,1.958266 5.56125,2.645792 1.26372,0.83111 2.66099,2.025746 3.30382,2.824697 0.71192,0.884813 0.85083,1.018344 0.62966,0.605274 z m -8.49979,-0.472745 c -5.32249,-0.631919 -9.9638,-3.442916 -13.36095,-8.09201 -0.95328,-1.304585 -1.30654,-1.680617 -0.78735,-0.838102 1.48341,2.407217 3.36728,4.637911 4.98235,5.899609 2.56469,2.003537 5.88551,3.165534 9.01651,3.154989 l 1.16491,-0.0039 -1.01547,-0.120563 z m -10.90772,-0.37992 c -0.22613,-0.140341 -1.12892,-0.610574 -2.00619,-1.044961 -2.45353,-1.214877 -3.56878,-2.413992 -4.36981,-4.698408 -0.16916,-0.482423 -0.33863,-0.877133 -0.3766,-0.877133 -0.17057,0 0.14806,1.683318 0.44387,2.344985 0.77107,1.724696 2.94407,3.38956 5.55496,4.255991 0.98878,0.328129 1.26244,0.335218 0.75377,0.01953 z M 86.656761,82.231244 c 0.930518,-2.354503 2.515813,-4.499209 4.276867,-5.786066 2.266373,-1.656109 4.859582,-2.496223 11.017472,-3.569298 4.4912,-0.782637 6.68125,-1.28654 8.57759,-1.973591 1.28129,-0.464219 3.36133,-1.485144 3.83734,-1.883446 0.15076,-0.12614 -0.18844,0.02056 -0.75376,0.326011 -2.54845,1.376939 -4.79158,1.966933 -11.03238,2.901764 -6.135605,0.919075 -8.580923,1.594196 -10.730986,2.96269 -1.27664,0.812569 -3.216119,2.741311 -3.980164,3.95813 -0.480953,0.765966 -1.414375,2.964942 -1.736798,4.091584 -0.184165,0.643526 0.03027,0.223586 0.524819,-1.027778 z M 137.8698,81.368692 c 0,-0.140107 -2.0946,-1.496178 -4.45407,-2.883622 -5.65376,-3.324598 -7.64468,-4.979021 -8.98281,-7.464572 -0.482,-0.895311 -0.53803,-0.792036 -0.0764,0.140831 0.8591,1.736097 2.67693,3.657494 4.87584,5.153637 0.71795,0.488496 2.72381,1.692532 4.45747,2.675636 1.73366,0.983103 3.36685,1.935179 3.62933,2.115722 0.5022,0.345449 0.55064,0.368528 0.55064,0.262368 z m 1.53174,-5.93369 c -1.69553,-1.988271 -4.2844,-4.186643 -6.63679,-5.635723 -0.9853,-0.606952 -0.50463,-0.187813 0.75377,0.657272 1.87546,1.259474 3.42225,2.567862 5.03652,4.260248 0.79145,0.829752 1.46052,1.512359 1.48683,1.516903 0.0263,0.0045 -0.26185,-0.354871 -0.64033,-0.7987 z m 9.17474,-2.796297 c -0.16155,-0.284501 -0.20057,-0.19344 -0.0683,0.159475 0.047,0.125423 0.11433,0.198479 0.14961,0.162345 0.0353,-0.03613 -0.001,-0.180953 -0.0813,-0.32182 z M 95.042241,69.141198 c 1.130647,-0.558263 2.549096,-1.216236 3.152108,-1.462161 3.564131,-1.453553 8.486261,-3.008232 11.307641,-3.571575 1.51283,-0.302065 5.66705,-0.917226 6.19408,-0.917226 0.0851,0 0.12295,-0.03247 0.0842,-0.07215 -0.10821,-0.110807 -3.24534,0.182184 -5.38863,0.503269 -7.12573,1.0675 -13.427785,3.499462 -18.946914,7.311609 -0.54648,0.377462 -0.993599,0.713717 -0.993599,0.74723 0,0.03351 0.570463,-0.295668 1.267695,-0.731517 0.697233,-0.435849 2.192771,-1.249214 3.323419,-1.807479 z m -2.239794,-3.92019 c 4.691165,-3.903536 9.474063,-6.748264 13.798783,-8.207112 2.62045,-0.88395 4.56273,-1.264338 6.95714,-1.362525 3.22296,-0.132162 5.43534,0.278124 9.2168,1.709257 2.50455,0.947877 2.76029,1.015896 2.76029,0.734163 0,-0.5182 -2.37179,-1.951409 -4.17997,-2.525843 -2.34986,-0.74652 -3.23231,-0.868126 -6.30421,-0.868759 -2.50139,-5.19e-4 -3.07529,0.0425 -4.38555,0.328708 -6.09601,1.331596 -12.44873,4.963715 -18.775597,10.734811 -2.331811,2.126977 -2.206321,2.052328 0.912314,-0.5427 z m 13.222463,56.566602 c -0.67569,-0.24666 -1.28272,-0.84127 -1.39546,-1.36689 -0.0513,-0.2392 -0.22335,-0.47344 -0.41257,-0.56173 -0.26189,-0.12219 -1.02027,-1.07321 -1.02027,-1.27943 0,-0.0283 0.25925,0.2011 0.57612,0.50977 l 0.57612,0.56122 0.0893,-0.34178 c 0.33668,-1.28915 1.66603,-1.93139 4.03485,-1.94931 0.67839,-0.005 1.66514,-0.0481 2.19277,-0.0956 l 0.95934,-0.0862 -1.09638,-0.3877 c -0.60302,-0.21324 -1.58976,-0.61309 -2.19278,-0.88857 -0.72416,-0.33082 -1.18763,-0.17086 -1.59498,-0.17228 -0.80157,-0.003 -2.58738,0.52756 -2.97682,0.88408 -0.39436,0.36103 -0.74655,0.77006 -0.64852,1.34563 l 0.0776,0.45562 -0.19768,-0.42102 c -0.26797,-0.57074 -0.25298,-1.0123 0.0582,-1.71423 0.27191,-0.61335 0.8783,-0.47038 1.4323,-0.32202 0.18498,0.0495 0.21987,-0.44308 0.50166,-0.73165 0.39535,-0.40485 0.4609,-0.42328 1.26588,-0.35608 0.65891,0.055 1.30391,0.27988 2.88144,1.00454 2.63158,1.20886 3.08685,1.33588 3.70547,1.03379 0.4969,-0.24265 0.66344,-0.20671 0.54214,0.11698 -0.0406,0.10824 -0.25112,0.19679 -0.46792,0.19679 -0.33934,0 -0.5729,0.23038 -1.67913,1.65624 -0.70673,0.91093 -1.54752,1.88638 -1.86844,2.16767 -0.99694,0.87385 -2.23083,1.14783 -3.34219,0.74212 z m 1.22009,-0.43258 c 1.81683,-0.48295 2.80359,-1.14233 3.45539,-2.30901 0.19405,-0.34735 0.5019,-0.83927 0.6841,-1.09317 l 0.33128,-0.46163 -0.31945,0.0784 c -0.17569,0.0431 -1.24452,0.13415 -2.37516,0.20233 -2.21184,0.13339 -2.88451,0.32314 -3.73094,1.05248 -0.96046,0.82759 -0.62851,2.32986 0.58454,2.6454 0.44794,0.11651 0.52424,0.11008 1.37024,-0.1148 z m -4.80216,-9.66388 c -1.94219,-0.71465 -2.481728,-1.09071 -2.800356,-1.95187 -0.229585,-0.6205 -0.17661,-1.21936 0.261944,-2.9611 0.569092,-2.26018 0.698812,-3.2249 0.717342,-5.33458 0.0181,-2.059712 0.20328,-1.783518 0.22828,0.34045 0.0178,1.51223 -0.20434,3.0841 -0.72303,5.11612 -0.724247,2.83729 -0.381193,3.73594 1.58947,4.16367 0.81386,0.17665 1.61367,0.55244 1.88295,0.88469 0.0984,0.12142 0.15595,0.21531 0.12788,0.20862 -0.0281,-0.007 -0.60609,-0.21638 -1.28448,-0.466 z m 0.42417,-1.08684 c 0.57095,-0.66028 1.44663,-1.10149 2.18613,-1.10149 0.95519,0 1.56967,0.23096 1.56967,0.58999 0,0.26841 -0.0578,0.27717 -1.21254,0.18358 -1.13357,-0.0919 -1.25824,-0.0746 -1.91412,0.26578 -0.85329,0.44279 -0.9681,0.45413 -0.62914,0.0621 z m -4.604137,-8.85811 c 0.263818,-0.0823 0.788027,-0.37198 1.16491,-0.64385 0.594017,-0.4285 0.641157,-0.44422 0.354132,-0.11806 -0.380521,0.43241 -1.343863,0.94684 -1.733621,0.92578 -0.153708,-0.008 -0.06355,-0.0772 0.214579,-0.16387 z m 36.645637,-2.37239 c -0.22987,-0.380869 -0.0935,-1.355138 0.28147,-2.01027 0.32546,-0.568704 0.37002,-0.770431 0.306,-1.385483 -0.0499,-0.479121 -0.15482,-1.075 -0.0787,-0.841483 0.18235,0.559617 0.26716,2.055748 0.0542,2.437246 -0.10772,0.192969 -0.19804,0.587824 -0.20071,0.877458 l -0.005,0.526604 1.27719,-1.298481 c 2.0976,-2.132561 2.61352,-3.173986 2.03751,-4.112883 -0.16117,-0.262711 -0.72149,-0.692147 -1.44769,-1.109514 -0.65161,-0.374502 -1.15824,-0.708052 -1.12585,-0.741222 0.0324,-0.03317 0.66638,0.25923 1.40885,0.649777 1.49146,0.784517 1.86143,1.208251 1.84917,2.117887 -0.0157,1.167009 -0.94531,2.570121 -2.71215,4.093711 -1.10112,0.949523 -1.45011,1.118594 -1.64441,0.796653 z m -24.88519,-1.334494 c 0.0989,-0.04054 0.21714,-0.03556 0.26268,0.01107 0.0455,0.04663 -0.0354,0.0798 -0.17988,0.07371 -0.15965,-0.0067 -0.19213,-0.03999 -0.0828,-0.08479 z M 107.3534,97.34327 c 0.0626,-0.06617 0.52517,-0.154986 1.02786,-0.197376 0.88659,-0.07476 0.90166,-0.08238 0.50285,-0.253953 -0.22613,-0.09728 -0.64006,-0.404617 -0.91984,-0.682961 l -0.50869,-0.506083 -0.14229,0.383232 c -0.0783,0.210778 -0.14229,0.438549 -0.14229,0.506156 0,0.06761 -0.0559,0.158313 -0.12426,0.201569 -0.0683,0.04326 -0.0904,-0.05403 -0.049,-0.216184 0.0732,-0.286597 0.0635,-0.288561 -0.34859,-0.07036 -0.23314,0.123456 -0.58704,0.224467 -0.78643,0.224467 -0.40257,0 -1.1586,-0.404375 -1.1586,-0.619692 0,-0.07598 0.074,-0.06237 0.16446,0.03026 0.23686,0.242553 1.27389,0.212359 1.48094,-0.04312 0.14434,-0.1781 0.10511,-0.235205 -0.24827,-0.361354 -0.23084,-0.0824 -0.51629,-0.300762 -0.63433,-0.48524 -0.2575,-0.402443 -0.29468,-0.787592 -0.0433,-0.448604 0.22109,0.298144 0.86125,0.540608 1.13908,0.431433 0.17406,-0.0684 0.14259,-0.134607 -0.16088,-0.338462 -0.3571,-0.239887 -0.72288,-0.752323 -0.73351,-1.027623 -0.003,-0.06916 0.14638,0.04135 0.33122,0.245597 0.41564,0.459261 0.75923,0.484278 0.76332,0.05558 0.01,-1.007573 1.0655,-2.250548 2.11563,-2.490466 0.3738,-0.0854 0.77109,-0.230988 0.88286,-0.323529 0.15968,-0.132204 0.18117,-0.130667 0.1003,0.0072 -0.0733,0.12502 0.0274,0.181169 0.35058,0.195411 0.24942,0.01099 0.64504,0.03672 0.87916,0.05716 0.52851,0.04616 2.51646,0.607274 2.79497,0.788897 0.22848,0.148997 0.11439,0.130462 -1.35425,-0.220026 l -0.87457,-0.208717 0.38628,0.412884 c 0.35414,0.378518 0.46467,0.412882 1.32807,0.412882 0.51798,0 0.91371,-0.04736 0.87939,-0.105255 -0.0343,-0.05789 0.22414,-0.113483 0.57437,-0.123537 0.35022,-0.01005 0.94208,-0.155337 1.31524,-0.322852 0.6708,-0.301122 0.67558,-0.30129 0.42242,-0.01482 -0.14084,0.159362 -0.60034,0.517926 -1.02111,0.796811 -0.42076,0.278883 -1.38175,1.147642 -2.13551,1.930573 -0.95254,0.989396 -1.64215,1.571169 -2.2613,1.907691 -0.83016,0.451215 -0.99345,0.487875 -2.39834,0.538463 -0.83603,0.0301 -1.45681,7.01e-4 -1.39366,-0.06602 z m 3.11125,-0.684044 c 0.82323,-0.435937 1.01402,-1.513882 0.40943,-2.313253 -0.39567,-0.523138 -0.75654,-0.241774 -0.75654,0.589854 0,1.130734 -0.67677,1.440264 -1.4642,0.669672 -0.5581,-0.546165 -0.83684,-0.354449 -0.47766,0.328533 0.45698,0.868946 1.43335,1.178283 2.28897,0.725194 z m 2.2669,-1.839836 0.77751,-0.90687 -1.06406,0.0413 -1.06405,0.0413 -0.015,1.067967 -0.015,1.067967 0.30154,-0.202398 c 0.16584,-0.111317 0.65141,-0.610488 1.07904,-1.109266 z m -5.1494,-0.470491 c 0.18003,-0.11658 0.17618,-0.163219 -0.031,-0.375435 -0.2648,-0.271229 -0.30581,-0.252896 -0.44088,0.197083 -0.10266,0.342011 0.10054,0.418813 0.47188,0.178352 z m 0.938,-0.688157 c 0.15206,-0.09869 0.14546,-0.196342 -0.0378,-0.559216 -0.26171,-0.518256 -0.35935,-0.538374 -0.70648,-0.145577 -0.25612,0.289807 -0.25521,0.297943 0.0625,0.561364 0.36201,0.300182 0.4211,0.312614 0.68179,0.143429 z m 1.16795,-0.608157 c -0.0567,-0.09386 -0.13738,-0.373103 -0.1794,-0.620531 l -0.0764,-0.449871 -0.4682,0.202548 -0.46821,0.202547 0.39106,0.417982 c 0.38149,0.407753 1.01624,0.603709 0.80115,0.247325 z m 1.9637,-0.160789 c 0.0204,-0.02085 -0.0371,-0.238998 -0.12768,-0.484768 -0.15897,-0.43126 -0.19236,-0.446855 -0.95696,-0.446855 -0.43573,0 -0.79224,0.05831 -0.79224,0.129573 0,0.07127 0.16486,0.330203 0.36635,0.575417 0.3334,0.405748 0.41613,0.437691 0.91993,0.355194 0.30447,-0.04986 0.57024,-0.107709 0.5906,-0.128561 z m -0.0952,4.513046 c 0.13237,-0.142254 2.26323,-1.883272 2.4326,-1.987563 0.0942,-0.05802 0.17131,-0.07361 0.17131,-0.03465 0,0.0781 -2.13864,1.794458 -2.46687,1.979779 -0.11306,0.06384 -0.17473,0.08293 -0.13704,0.04243 z m 28.7898,-0.135709 c -0.005,-0.0518 0.12532,-0.651755 0.29032,-1.333241 0.41069,-1.696225 0.44816,-5.240786 0.0661,-6.254754 -0.41431,-1.099584 -1.18636,-1.474428 -2.2416,-1.088334 -0.35402,0.129531 -0.36452,0.124224 -0.12746,-0.06441 0.45775,-0.364258 1.3884,-0.422954 1.89569,-0.119563 1.02435,0.612627 1.41413,1.72114 1.39679,3.972369 -0.0104,1.347832 -0.0707,1.787461 -0.36613,2.666482 -0.37032,1.102027 -0.89713,2.382816 -0.91371,2.221454 z m -37.39643,-4.214299 c -0.54103,-0.55403 0.40886,-2.034406 2.09684,-3.267846 2.43308,-1.777911 5.42072,-2.738755 8.51584,-2.738755 1.27751,0 4.11666,0.328722 4.27952,0.495491 0.0354,0.03623 -0.68059,0.06587 -1.59104,0.06587 -1.76526,0 -3.11801,0.207166 -4.55749,0.697954 -1.41512,0.482483 -4.35489,2.042441 -5.55045,2.945281 -1.76583,1.333488 -2.69231,1.970411 -2.86622,1.970411 -0.0894,0 -0.23655,-0.07578 -0.327,-0.16841 z"
       id="path1456"
       inkscape:connector-curvature="0"
       sodipodi:nodetypes="scsscsscccscccscccccssccsscccccccccccssscsccsssscssssssssccccccccscsscccscccccccccscsccccccccscscscsccsscsccsssscccssccsssccscscsccscccccscccscccscccssccccscsccscccccccccccccccsccccccccccccsccccccsccccsscccsscccsccssccssssssscccscccsccssssscsssssccsscssccccccsssscccccssscssscsscsccsccccssccccccccccsccccsccccscccscscccccccccccssccccscscscccccccccscccccccccccccccscsccssscccssssssscccscsccscccccccccsssssssscssscssccsscccscccccccsccsccsccccscsscccccccccccccccscsccccccssccccccccccccccccccccccscccccccccccccscccssccccccccccsccccscccsccccccccccscssccccccccccccccccccccscscccscccsscccccscccccccccccccccscssssc" />
    <path
       style="fill:none;stroke:#000000;stroke-width:0.26458332px;stroke-linecap:butt;stroke-linejoin:miter;stroke-opacity:1"
       d="m 103.66717,119.13213 -0.47394,-0.71769"
       id="path1458"
       inkscape:connector-curvature="0" />
    <path
       style="fill:none;stroke:#000000;stroke-width:0.26458332px;stroke-linecap:butt;stroke-linejoin:miter;stroke-opacity:1"
       d="m 103.19323,118.41444 -0.16083,-0.88593"
       id="path1460"
       inkscape:connector-curvature="0" />
    <path
       style="fill:#ff00ff;stroke-width:0.17885263;stroke-miterlimit:4;stroke-dasharray:none"
       d="m 393.45807,451.23771 c -0.48347,-0.45278 -1.33496,-1.53371 -1.89221,-2.40206 -0.9059,-1.41166 -1.04534,-1.75926 -1.31707,-3.28303 -0.29981,-1.68127 -0.29886,-1.7141 0.0705,-2.43819 0.62717,-1.22935 2.02863,-2.51218 3.46456,-3.17128 3.45289,-1.58491 7.28928,-2.43283 11.20586,-2.47673 l 2.76786,-0.031 1.60714,0.68733 c 3.51388,1.5028 5.67743,2.36452 8.8108,3.50927 l 3.27508,1.19653 -1.04294,0.11198 c -0.57362,0.0616 -2.69026,0.19296 -4.70365,0.29194 -2.0134,0.099 -5.26786,0.25974 -7.23215,0.35724 -2.68222,0.13313 -4.06049,0.28938 -5.53571,0.62757 -4.61853,1.05878 -7.3016,3.24258 -8.2899,6.74731 l -0.30917,1.09638 z"
       id="path1462"
       inkscape:connector-curvature="0"
       transform="scale(0.26458333)" />
    <path
       style="fill:#ff00ff;stroke-width:0.17885263;stroke-miterlimit:4;stroke-dasharray:none"
       d="m 400.34689,459.06592 c -1.27186,-0.37139 -2.20274,-0.92015 -2.93408,-1.72966 -1.03476,-1.14535 -1.42285,-2.16339 -1.42579,-3.74014 -0.004,-2.33207 1.05203,-3.93969 3.75252,-5.71066 2.49118,-1.63372 4.79771,-2.12574 12.57164,-2.68176 5.11288,-0.36569 7.96839,-0.62683 9.08154,-0.83051 l 0.5994,-0.10968 -0.88493,1.2288 c -0.4867,0.67585 -1.56001,2.35349 -2.38511,3.7281 -3.09672,5.1591 -6.0703,7.25292 -13.19662,9.29233 -2.55694,0.73175 -4.02866,0.88896 -5.17857,0.55318 z"
       id="path1464"
       inkscape:connector-curvature="0"
       transform="scale(0.26458333)" />
    <g
       transform="translate(26.458686,2.5439076)"
       id="g848">
      <path
         style="fill:#000000;stroke-width:0.02065073;stroke-miterlimit:4;stroke-dasharray:none"
         d="m 93.637953,167.47261 c -0.392896,-0.14412 -0.614221,-0.30919 -0.614221,-0.4581 0,-0.13717 0.142025,-0.26573 0.436148,-0.3948 0.879357,-0.3859 2.667171,-0.49732 3.996969,-0.2491 0.706455,0.13187 1.198037,0.34954 1.29321,0.57264 0.0282,0.0661 0.0281,0.078 -0.0013,0.14152 -0.06286,0.13589 -0.272819,0.26878 -0.62082,0.39294 -0.219095,0.0782 -0.379116,0.0876 -0.567365,0.0335 -0.0659,-0.019 -0.30857,-0.12131 -0.539261,-0.22746 -0.48043,-0.22106 -0.693735,-0.29555 -0.949813,-0.3317 -0.350344,-0.0495 -0.647647,0.025 -1.292678,0.32395 -0.652642,0.30243 -0.788649,0.32587 -1.140897,0.19666 z"
         id="path862-2"
         inkscape:connector-curvature="0" />
      <text
         xml:space="preserve"
         style="font-style:normal;font-weight:normal;font-size:5.42916059px;line-height:1.25;font-family:sans-serif;letter-spacing:0px;word-spacing:0px;fill:#f9f9f9;fill-opacity:1;stroke:none;stroke-width:0.13572901"
         x="91.107376"
         y="174.22107"
         id="text877-8"
         transform="scale(1.0440434,0.95781458)"><tspan
           sodipodi:role="line"
           id="tspan875-7"
           x="91.107376"
           y="174.22107"
           style="font-size:0.7238881px;fill:#f9f9f9;stroke-width:0.13572901">DBS</tspan></text>
    </g>
  </g>
</svg>
